<?xml version="1.0" encoding="utf-8"?><svg viewBox="0 0 502.66 522" xmlns="http://www.w3.org/2000/svg" xmlns:xlink="http://www.w3.org/1999/xlink"><style>:root>svg{display:none}:root>svg:target{display:block}</style><svg viewBox="0 0 502.664 502.664" id="icon" xmlns="http://www.w3.org/2000/svg"><path d="M153.821 358.226L0 274.337v-46.463l153.821-83.414v54.574L46.636 250.523l107.185 53.431v54.272zm26.273 29.358L282.103 115.08h32.227L212.084 387.584h-31.99zm168.749-29.358v-54.272l107.164-52.999-107.164-52.59v-53.927l153.821 83.522v46.183l-153.821 84.083z"/></svg><svg viewBox="0 0 468 522" id="logo" xmlns="http://www.w3.org/2000/svg"><path clip-rule="evenodd" d="M1.135.175C.922.31.962.415 1.32.667c.506.354.36.472-.717.577L0 1.303.065 138.25C.1 213.572.187 275.424.257 275.7c.093.368.194.068.372-1.105.17-1.11.262-5.717.299-14.871l.054-13.262.19 17.884c.104 9.837.179 19.4.165 21.251-.017 2.327.043 3.365.196 3.365.13 0 .185-.245.132-.602-.048-.332-.025-.603.052-.603s.213-.655.303-1.457l.162-1.457.148 1.809c.347 4.232.584 7.764.584 8.699 0 .711.117 1.141.402 1.477l.401.474-.127-1.407c-.07-.773-.076-1.358-.012-1.3.183.165.338 3.03.158 2.92-.089-.054-.115.143-.058.44.094.494.118.506.274.145.124-.288.148-.203.088.307-.107.916.294 5.068.513 5.315.096.109.175-.108.183-.502.008-.38.082-.864.164-1.073.211-.539.91 4.835.78 5.992-.058.507-.025.919.072.919s.176-.163.176-.362c0-.199.083-.446.186-.553.102-.104.224-.462.27-.794.066-.456.095-.381.12.302.045 1.222.8 7.069.929 7.198.056.058.104-.205.106-.583.001-.378.082-.812.179-.964.245-.388.482.753.47 2.264-.005.776.055 1.087.174.905.169-.26.055 1.77-.133 2.383-.043.139.055.251.217.251.174 0 .295-.189.295-.462 0-.253.082-.547.182-.653.1-.105.225-.372.278-.593.053-.221.107-.034.12.416.013.45.113 1.308.223 1.909s.226 1.638.26 2.305c.056 1.155.565 2.349.87 2.046.074-.075.025-.266-.109-.428-.191-.23-.183-.406.039-.83.269-.515.28-.489.242.584-.022.617.032 1.077.12 1.023.087-.054.124.175.082.509-.043.333.01.604.114.604.105 0 .192.362.192.804 0 .442.09.804.2.804.111 0 .204-.293.208-.653.005-.525.044-.587.204-.313.294.504.804 4.173.66 4.748-.084.334-.053.454.093.364.12-.075.28-.545.355-1.045.075-.499.163-.882.194-.848.161.164.738 3.989.712 4.714-.043 1.178.275 1.234.65.113l.316-.951.012.812c.007.446.15 1.34.318 1.985.175.669.251 1.465.18 1.851-.07.374-.075.677-.01.677.195 0 .728-1.153.761-1.648.017-.253.095.081.173.744.365 3.099.468 3.718.617 3.718.088 0 .217-.091.287-.203.239-.388.489.022.62 1.014.073.549.212.997.308.997s.175.277.175.615c0 .695.391.625.42-.074.026-.607.78 1.836.783 2.538.002.468.07.544.39.442.345-.109.43.062.754 1.499.316 1.408.417 1.613.767 1.565.326-.044.415.079.47.649.036.386.14.794.232.905.092.11.152.631.135 1.155-.018.527-.002.955.036.955.037 0 .232-.201.432-.449.362-.448.366-.442.72 1.206.224 1.045.452 1.654.617 1.654.228 0 .744.93 1.14 2.06.069.195.246.351.394.351.163 0 .409.541.627 1.383.296 1.139.422 1.366.716 1.29.291-.076.421.149.714 1.23.274 1.011.444 1.322.723 1.322.358 0 .82 1.127.864 2.11.011.253.158.402.394.404.401 0 1.099 1.409 1.12 2.259.007.305.134.452.389.452.242 0 .463.235.619.653.382 1.033.544 1.258.88 1.23.228-.018.38.287.547 1.105.33 1.612.342 1.64.673 1.513.34-.131.922 1.049.922 1.869 0 .358.094.474.347.426.345-.066 1.06 1.007 1.06 1.591 0 .145.21.344.465.441.355.134.53.448.737 1.306.21.876.388 1.185.79 1.376.306.145.597.511.71.89.118.404.337.666.586.704.266.04.49.337.678.904.162.486.442.896.662.965.247.078.507.52.736 1.245.208.66.491 1.162.683 1.212.181.046.432.43.558.85.127.422.433.898.681 1.061.248.163.661.716.917 1.23.256.512.631 1.021.833 1.127.201.109.461.471.578.804.136.39.348.607.596.607.29 0 .47.271.733 1.105.206.657.463 1.106.632 1.106.157 0 .484.407.725.904.242.498.55.904.687.904.136 0 .45.408.699.904.248.499.517.905.598.905.08 0 .482.468.893 1.041.938 1.306 1.084 1.491 1.702 2.164.804.876 2.203 2.666 3.718 4.762.774 1.069 1.723 2.281 2.11 2.695 1.15 1.226 2.076 2.279 2.65 3.014 2.685 3.437 3.081 3.889 6.46 7.409.681.71 1.33 1.449 1.44 1.642.11.193.718.922 1.35 1.622a166.87 166.87 0 011.633 1.826c.265.306.813.818 1.218 1.14.404.321 1.277 1.248 1.939 2.057.662.81 1.36 1.628 1.55 1.819.192.189.438.436.549.551.11.112.782.771 1.493 1.463a273.568 273.568 0 016.27 6.285c1.764 1.835 2.42 2.45 3.479 3.262.325.249.517.452.427.452-.09 0 .14.293.513.653.373.36.779.834.901 1.055.122.221.363.43.535.464.339.067 2.342 1.99 2.307 2.213-.011.076.447.363 1.019.639.572.277 1.04.603 1.04.723.001.308.675.884 1.035.884.164 0 .449.318.633.704.21.442.479.703.72.703.235 0 .428.185.502.478.07.28.375.581.735.732.338.138.748.512.912.828.163.317.427.574.586.574.16 0 .607.318.993.704.387.387.782.703.878.703.096 0 1.207 1.041 2.469 2.311 1.261 1.272 2.41 2.311 2.553 2.311.143 0 .234.152.201.339-.043.246.144.382.681.497.472.1 1.085.492 1.695 1.085.525.51 1.277 1.167 1.671 1.461.967.717 2.827 2.588 2.827 2.843 0 .113.185.205.412.205.588 0 1.549.539 1.8 1.007.117.221.369.402.558.402.19.002.549.319.799.703.25.386.611.706.804.708.427.008 1.053.46 1.053.761 0 .197.765.621 1.642.906.185.061.366.312.402.559.048.328.279.506.87.671.442.123.815.334.828.468.014.135.037.336.051.447.014.11.164.201.334.201.409 0 1.499.813 1.499 1.119 0 .241.764.613 1.507.731.242.04.403.221.403.456 0 .41.625.814 1.55 1.003.376.077.51.203.431.408-.069.181.033.35.258.426.905.308 1.855.758 1.826.864-.094.352.526 1.003 1.008 1.059.438.05.543.157.505.515-.039.373.051.452.522.452.588 0 1.277.472 1.476 1.011.063.17.576.428 1.142.572.876.223 1.027.334 1.027.744 0 .36.138.508.553.599.797.172 1.459.524 1.343.713-.113.183 1.345.983 1.789.983.156 0 .339.273.406.607.095.476.253.634.732.729.693.139.973.444.612.667-.146.093.142.249.725.396 1.119.281 1.495.534 1.35.912-.066.173.115.316.512.402.338.075.666.219.729.322.063.102.395.185.737.185.59 0 .605.02.29.367-.467.517-.419.637.257.637.988 0 1.621.338 1.621.864 0 .426.124.491 1.256.66 1.13.166 1.249.229 1.195.624-.057.408.487.917.906.846.574-.096.895.047.78.348-.208.543.257.856 1.474.993.788.09 1.154.219 1.154.41 0 .155-.066.279-.146.279-.08 0-.189.115-.242.251-.065.171.162.27.704.308.441.032 1.055.189 1.365.349.436.225.585.236.654.045.048-.137.156-.185.239-.109.084.078-.108.374-.424.661-.501.45-.524.515-.174.489.846-.063 1.82.03 2.086.198.153.097.288.388.301.646.021.393.147.48.773.528 1.001.076 1.818.402 1.658.661-.227.368.331.796 1.034.796.373 0 .679.096.679.215 0 .116.158.185.351.153.194-.032.375.03.402.138.028.109-.062.197-.201.197-.498 0-.254.603.252.619 1.299.042 1.602.109 1.921.428.222.221.262.37.115.418-.596.199-.095.434 1.198.561l1.425.14-.085.575c-.071.489-.012.579.384.601.257.014.535.044.618.07.083.024.535.115 1.005.201.835.153 1.056.358.653.607-.442.273-.146.452.954.575.636.072 1.337.169 1.558.215l.483.1c.045.008-.069.181-.252.382-.429.476-.248.637.711.637.788 0 .878.093 1.25 1.268.085.269.2.316.446.177.214-.121.71-.086 1.398.092.587.153 1.139.268 1.228.252.661-.113.705.088.128.58l-.636.545 1.239.032c1.764.044 2.41.165 2.512.47.048.147-.077.388-.279.537-.32.233-.194.267.983.267 1.551 0 2.964.466 2.58.85-.424.424-.253.557.718.559.525 0 1.293.094 1.707.209.723.201.74.227.456.661-.294.45-.289.452.788.478.597.014 1.296.141 1.554.282.258.14.626.261.817.267.522.016.524.402.003.476-.943.135-.399.44.804.45 1.694.018 4.028.468 3.434.665-.239.079-.532.262-.653.406-.177.213.073.268 1.309.28 1.781.018 3.241.231 2.927.426-.121.074-.168.335-.104.58.105.4.25.446 1.45.463.732.01 2.1.126 3.041.259l1.708.243-1.005.277-1.005.28 2.914.247c1.602.136 3.117.257 3.366.265.621.026.569.382-.1.663-.481.203-.223.257 1.959.41 1.575.111 2.676.283 2.956.464a2.1 2.1 0 00.966.29c.298 0 .469.086.398.201-.068.11-.349.201-.627.201-.283 0-.448.088-.377.2.072.119 1.229.201 2.793.201 4.105 0 9.4.248 9.217.428-.09.091-.834.26-1.654.376-.819.117-1.535.253-1.587.308-.086.086 1.322.164 2.584.144.278-.006 3.649-.018 7.498-.03 4.605-.012 6.953-.088 6.87-.221-.068-.11-.593-.205-1.167-.213a13.31 13.31 0 01-1.847-.159c-.72-.132-.752-.162-.302-.275.278-.068 3.057-.191 6.18-.269 3.122-.079 5.677-.221 5.677-.316 0-.096-.221-.174-.491-.174-.498 0-.958-.396-.476-.408.145-.004.987-.149 1.871-.322a35.112 35.112 0 013.215-.444c1.543-.127 2.156-.46 1.105-.601-.277-.038-.578-.141-.673-.231-.157-.151.814-.245 5.177-.508.874-.053 1.635-.141 1.692-.197.056-.057-.079-.103-.296-.103-.219 0-.562-.12-.763-.267-.32-.233-.055-.299 2.019-.507a263.25 263.25 0 012.99-.283c.631-.05.965-.667.511-.948-.296-.183 1.87-.475 3.661-.493.745-.008 1.356-.066 1.356-.132 0-.169-.962-.583-1.366-.587-.283-.004-.293-.034-.052-.187.16-.1 1.268-.247 2.461-.323 1.196-.079 2.173-.181 2.173-.23 0-.048-.091-.259-.203-.468-.179-.333-.113-.394.552-.498.416-.068.913-.207 1.105-.312.191-.104.752-.19 1.244-.19 1.164 0 1.355-.326.298-.505-1.308-.221-.655-.48 1.581-.627 1.13-.074 2.054-.211 2.054-.303 0-.095-.293-.292-.653-.438-.631-.26-.575-.278 1.557-.517 1.216-.136 2.283-.319 2.369-.404.089-.086.012-.279-.166-.428-.288-.239-.225-.301.544-.53.478-.143 1.232-.269 1.674-.278.442-.01.985-.092 1.206-.182.364-.151.335-.195-.286-.465-.854-.371-.61-.462 1.761-.657 1.495-.122 1.664-.177 1.577-.506-.128-.494.651-.993 1.552-.993.892 0 1.101-.329.406-.645-.539-.245-.537-.245.442-.5.538-.139 1.312-.255 1.72-.257.94-.004 1.161-.338.426-.635l-.565-.229.703-.163a11.268 11.268 0 011.574-.209c.534-.03.96-.179 1.105-.382.129-.183.372-.384.537-.448.207-.081.162-.121-.139-.133-.243-.008-.498-.108-.567-.221-.07-.114-.054-.189.038-.169.091.022.82-.034 1.622-.12 1.023-.113 1.457-.241 1.457-.436 0-.151-.137-.276-.301-.276-.165 0-.302-.078-.302-.172 0-.095.677-.284 1.503-.416 1.636-.264 1.956-.481 1.381-.943-.358-.285-.356-.293.04-.185.227.061.788-.07 1.246-.291.46-.223 1.031-.404 1.27-.404.366 0 .396-.048.187-.301-.139-.165-.398-.308-.577-.314-.579-.024 1.457-.585 2.134-.587.677-.004.878-.275.352-.478-.551-.211-.312-.476.552-.609.471-.074 1.043-.163 1.276-.197.716-.108.937-.323.67-.647-.131-.155-.384-.289-.563-.299-.484-.022-.105-.119 1.632-.406 1.601-.267 1.891-.45 1.109-.697l-.45-.143.5-.185c.273-.102.929-.277 1.453-.39.997-.215 1.113-.335.713-.735-.186-.187-.154-.241.151-.241.215-.002.651-.137.967-.302.317-.167.747-.301.954-.301.505 0 .488-.41-.022-.545-.764-.199-.396-.428.914-.569l1.317-.14-.127-.579c-.115-.52-.074-.579.396-.579.745 0 2.122-.46 2.122-.711 0-.117-.101-.314-.223-.434-.163-.163.068-.271.854-.4.936-.155 1.071-.233 1.031-.609-.038-.376.118-.468 1.206-.709.952-.211 1.268-.372 1.324-.667.118-.641.442-.891 1.157-.891.663 0 .89-.247.468-.508-.502-.309.985-1.037 1.97-.961.311.023.327-.381.028-.681-.163-.163.122-.299 1.055-.508 1.107-.247 1.27-.342 1.218-.704-.047-.327.108-.474.703-.673.42-.14.967-.241 1.216-.223.532.04.597-.263.11-.534-.289-.161-.221-.241.426-.513.422-.177.939-.321 1.146-.321.265 0 .377-.145.377-.48 0-.515.332-.726 1.136-.726.384 0 .474-.08.39-.352-.061-.193-.042-.458.04-.588.193-.308 1.137-.668 1.75-.668.334 0 .494-.128.539-.434.044-.303.321-.528.91-.741.571-.207.864-.44.904-.721.042-.304.378-.529 1.264-.846 1.144-.412 1.18-.445.704-.642-.436-.18-.449-.209-.095-.219.223-.008.585-.136.804-.285.217-.149.645-.331.948-.406.354-.084.553-.267.553-.502 0-.245.221-.432.653-.555.498-.142.667-.313.716-.723.064-.541.186-.615 1.406-.862.43-.087.726-.294.838-.587.095-.249.484-.601.868-.782.382-.183.742-.508.798-.723.056-.215.43-.529.828-.695.4-.167.725-.433.725-.593 0-.159.223-.346.497-.414.273-.069.854-.487 1.292-.927.436-.44.888-.801 1.005-.801.118 0 .269-.217.335-.485.068-.275.366-.587.687-.719.312-.129.778-.462 1.037-.74.26-.279.744-.647 1.075-.817.589-.308.842-.517 2.347-1.958.408-.388.798-.707.869-.707.257 0 2.11-1.716 2.11-1.953 0-.137.249-.398.552-.583.304-.185.824-.641 1.158-1.013.331-.372.818-.715 1.079-.765.261-.053.952-.619 1.533-1.26.581-.644 1.378-1.343 1.772-1.554.392-.213.764-.589.826-.836.063-.247.296-.506.517-.576.223-.071.532-.37.689-.668.297-.56 1.159-1.3 2.273-1.951.359-.211.699-.52.753-.689.057-.171.573-.716 1.146-1.214a36.997 36.997 0 002.1-2.009 76.349 76.349 0 011.366-1.407c.539-.518 6.493-6.511 6.891-6.933.207-.221.9-.898 1.537-1.507 1.718-1.64 2.132-2.098 2.132-2.371 0-.137.324-.402.717-.589.505-.241.752-.512.832-.916.071-.356.296-.645.589-.756.261-.098.474-.293.474-.43 0-.136.611-.832 1.357-1.545.745-.714 1.513-1.531 1.704-1.817.193-.285.464-.522.603-.526.14-.006.237-.109.213-.229-.024-.121.406-.686.952-1.256.549-.573 1.053-1.268 1.124-1.546.07-.279.341-.588.604-.689.262-.098.477-.273.477-.388 0-.114.687-.908 1.527-1.764 2.112-2.15 2.586-2.677 2.99-3.314.193-.303.466-.552.607-.552.251 0 .904-1.15.904-1.592 0-.124.203-.317.452-.432.249-.114.625-.565.836-1.001.37-.763.525-.88 1.073-.807.143.018.252-.185.252-.467 0-.323.211-.647.602-.926.332-.235.603-.543.603-.681 0-.137.28-.561.621-.941.342-.377.8-1.039 1.021-1.465.219-.428.573-.822.786-.878.213-.054.386-.217.386-.357 0-.141.281-.557.625-.925.343-.37.703-.876.799-1.129.097-.253.38-.555.631-.669.251-.115.629-.567.84-1.003.245-.506.521-.794.764-.794.207 0 .358-.112.331-.251-.068-.392.67-1.742 1.019-1.863.173-.058.497-.49.718-.956.221-.467.518-.848.663-.848.142 0 .432-.384.643-.854.269-.603.504-.854.794-.854.297 0 .411-.131.411-.473 0-.828.406-1.676.915-1.907.271-.122.492-.357.492-.52 0-.161.318-.537.703-.832.386-.293.704-.659.704-.808 0-.337.792-1.668.826-1.388.014.11.014.269.002.351-.014.083.066.151.177.151.11 0 .201-.181.201-.404 0-.223.08-.563.176-.754.099-.192.296-.596.436-.902.143-.303.402-.552.577-.552.215 0 .432-.388.667-1.19.225-.766.47-1.214.685-1.256.185-.036.441-.382.569-.77.129-.385.414-.785.637-.886.221-.1.511-.426.641-.721.131-.296.472-.663.76-.816.569-.304.934-1.019.759-1.477-.16-.416.288-1.146.664-1.079.217.038.409-.209.602-.778.201-.597.449-.902.875-1.079.426-.175.602-.394.626-.774l.057-.876c.012-.191.124-.45.251-.577a.604.604 0 00.127-.556c-.085-.263-.067-.273.094-.046.348.486.844.096.844-.664 0-.988.326-1.728.762-1.728.381 0 1.145-1.286.948-1.601-.056-.093.068-.125.277-.071.475.125.686-.205.78-1.225.103-1.098.372-1.524.965-1.524.404 0 .492-.088.448-.452-.028-.249.016-.866.1-1.37.129-.762.229-.919.579-.904.442.016.492-.083.973-1.94.217-.838.289-.924.623-.745.315.169.377.13.377-.235 0-.895.475-2.028.923-2.197.317-.12.484-.402.582-.986.077-.448.221-.816.322-.816.1 0 .183-.225.183-.503 0-.275.09-.502.201-.502.11 0 .201.097.201.213 0 .117.09.157.201.088.11-.068.201-.43.201-.803 0-.374.078-.728.174-.788.097-.058.232-.462.302-.896.102-.647.195-.772.502-.692.332.087.396-.062.521-1.225.154-1.447.552-2.104 1.035-1.706.227.19.279.122.279-.366 0-.328.082-.858.185-1.18.1-.319.237-.822.299-1.115.091-.414.207-.51.521-.43.343.09.402.006.404-.571.002-.372.116-1.053.255-1.515.217-.723.299-.81.615-.635.496.279.558.169.619-1.103.044-.977.416-1.777.811-1.75.061.004.187.006.284.006.096 0 .239-.475.313-1.055.264-1.998.46-3.063.489-2.637.016.235.164.541.329.677.33.276.338.262.404-.904.107-1.875.33-2.542.914-2.747.503-.175.565-.303.647-1.336.051-.627.157-1.457.238-1.845.078-.386.14-.884.136-1.105-.008-.366.026-.356.38.1l.388.503.016-.804c.022-1.059.747-4.566.81-3.919.028.278.044.617.04.754-.006.139.06.251.147.251.233 0 .402-.546.402-1.296 0-.364.136-1.047.301-1.517.165-.47.309-1.136.317-1.481l.017-.629.285.653c.358.814.647.848.53.062-.048-.325.025-1.342.159-2.26.346-2.36.545-3.342.583-2.876.018.221.171.629.338.904l.305.503-.093-.603c-.052-.332.029-1.28.177-2.11.511-2.826.513-2.836.925-2.705.337.108.375 0 .375-1.081 0-.661.137-1.911.302-2.777.165-.866.301-1.875.301-2.241 0-.392.083-.613.201-.54.111.068.201.385.201.703 0 .319.091.635.201.703.127.079.201-.384.203-1.244.002-1.461.539-6.697.703-6.862.055-.054.099.458.099 1.141 0 .681.082 1.238.183 1.238.197 0 .353-.95.398-2.411.014-.497.11-1.357.215-1.909.102-.553.245-1.479.317-2.06.135-1.091.495-1.274.495-.251 0 .319.08.631.18.691.105.064.185-.942.191-2.349.004-1.354.103-3.501.219-4.773.115-1.27.225-2.897.245-3.617.027-.938.059-1.079.117-.502.044.442.201.94.348 1.105.146.167.303.482.349.703.047.221.103-1.045.123-2.813.203-16.838.372-25.649.404-20.937.022 3.408.106 5.343.229 5.267.108-.066.193-1.31.193-2.851 0-1.504.048-2.78.108-2.84.059-.058.107 1.264.107 2.942 0 1.676.08 3.046.177 3.046.15 0 .376-190.654.295-249.58l-.024-18.185-.878-.076a37.593 37.593 0 00-1.913-.1c-1.224-.03-1.23-.325-.006-.33a5.971 5.971 0 001.615-.272l.774-.27-.649-.129C465.915-.07 1.447-.023 1.135.175zm40.307.747c-.067.066-.24.074-.385.015-.16-.064-.113-.111.121-.12.212-.01.33.038.264.105zm31.302 14.67c33.635.092 45.659.185 45.782.353.121.167.193.16.268-.023.121-.299.671-.34.671-.05 0 .114.5.188 1.155.172 1.112-.027 1.126-.034.352-.173l-.804-.143.854-.029c.47-.016.854.062.854.172 0 .111.141.202.314.202.172 0 .257-.091.189-.202-.08-.129.638-.2 2.009-.2 1.372 0 2.09.071 2.01.2-.069.111-.029.202.088.202a.208.208 0 00.213-.202c0-.277.522-.251 1.034.05.34.202.444.202.516 0 .05-.137.348-.25.661-.25.313 0 .622.113.686.25.094.202.141.202.235 0 .159-.34.449-.315.836.071.262.263.583.298 1.745.189a36.13 36.13 0 012.783-.134c.747 0 1.312-.076 1.253-.17-.166-.27 5.32-.258 5.645.012.268.222.498.215 4.373-.147.827-.077 1.139-.044 1.043.11-.091.147.168.22.78.22.504 0 .917-.09.917-.2 0-.23 10.494-.29 10.723-.062.215.215.748.252.619.043-.154-.248 24.141-.32 25.733-.075.491.075.528.057.201-.097-.253-.118 14.137-.169 38.671-.135 29.738.04 39.093.11 39.151.29.044.13.169.237.275.237.109 0 .141-.091.073-.202-.077-.122.233-.2.791-.2.591 0 .923.089.933.25.012.202.036.202.116 0 .067-.16.531-.25 1.302-.25.75 0 1.156.075 1.077.2-.068.111.023.202.201.202.179 0 .276-.082.213-.183-.186-.3 2.106-.353 2.528-.057.231.162.374.181.374.05 0-.27.74-.28.904-.011.069.11.368.191.666.18l.54-.02-.502-.16c-.617-.198 1.326-.275 7.612-.3 3.434-.015 4.559.042 4.758.24.3.299 1.178.359.999.068-.066-.105-.251-.14-.414-.079-.163.063-.295 0-.295-.138 0-.201 5.204-.226 25.872-.124 14.229.07 33.135.129 42.011.13 10.706.001 16.096.07 16.013.202-.072.117.113.196.44.187.497-.012.517-.035.163-.187-.243-.104 1.12-.178 3.467-.186 2.202-.008 3.846.063 3.818.166-.028.1.018.19.1.201.414.056.567.004.466-.159-.18-.29 4.743-.35 31.837-.388 14.091-.02 29.035-.094 33.207-.165l7.586-.13-.002 45.695c0 25.133.022 84.941.05 132.908.05 83.685-.004 93.184-.538 93.689-.091.086-.123-.139-.073-.499.05-.357.01-.653-.09-.653-.101 0-.123-.271-.05-.603.082-.377.052-.603-.085-.603-.118 0-.217.25-.217.553 0 1.021-.406 7.178-.516 7.853-.089.533-.165.621-.382.442-.416-.345-.492-.06-.71 2.639-.11 1.364-.309 3.203-.442 4.087l-.243 1.608-.179-1.27c-.098-.698-.211-1.24-.247-1.202-.036.036-.12.88-.183 1.873-.219 3.402-.361 4.6-.635 5.311-.15.392-.265.532-.255.311.121-2.429-.301-1.617-.625 1.206-.313 2.725-.679 4.584-.866 4.395-.078-.076-.145-.42-.145-.76-.004-.478-.05-.55-.201-.319-.108.167-.154.528-.1.804.052.277-.074 1.497-.283 2.712-.209 1.216-.39 1.94-.402 1.608-.012-.331-.105-.733-.207-.894-.143-.225-.215-.165-.326.279-.08.314-.161.716-.181.894-.213 1.891-.365 2.382-.707 2.293-.386-.102-.462.141-.806 2.552-.327 2.297-.412 2.613-.701 2.613-.165 0-.251-.153-.209-.368.038-.203 0-.482-.084-.621-.089-.143-.213.291-.292 1.023-.341 3.201-.36 3.275-.651 2.875-.149-.203-.338-.299-.422-.215-.139.137-.82 3.611-.916 4.673-.055.58-.342.375-.342-.246 0-.269-.08-.49-.177-.49-.227 0-.418.707-.432 1.608-.006.387-.132 1.155-.281 1.708l-.271 1.004-.073-.703c-.108-1.063-.45-.768-.675.587-.11.665-.313 1.318-.452 1.457-.139.136-.251.366-.251.508 0 .334-.336.342-.47.01-.055-.136-.109-.05-.117.195-.008.247-.167 1.136-.352 1.98-.325 1.481-.345 1.513-.611 1.008-.373-.711-.653-.653-.627.133.025.723-.229 2.777-.371 3.018-.051.085-.187.097-.302.024-.134-.082-.11-.187.065-.295.219-.137.221-.215.012-.426-.326-.326-.635.088-.641.858 0 .283-.147 1.007-.322 1.608-.338 1.149-.685 1.726-.685 1.131 0-.187-.085-.342-.189-.342-.102 0-.187.159-.187.352 0 .195-.118.894-.263 1.557-.271 1.236-.573 1.489-.79.665-.151-.566-.335-.213-.44.842-.086.867-.565 2.211-.788 2.211-.09 0-.106-.249-.034-.553.107-.452.083-.506-.135-.303-.146.139-.289.5-.317.804-.026.305-.219 1.139-.428 1.852-.291.995-.406 1.194-.496.854-.163-.627-.555-.55-.557.109-.002 1.039-.382 2.028-.756 1.969-.436-.066-.643.235-.647.951-.004.785-.548 2.005-.85 1.905-.154-.052-.41.378-.673 1.137-.305.884-.53 1.238-.82 1.282-.287.042-.452.296-.587.905-.138.626-.285.843-.566.846-.294 0-.47.305-.784 1.356-.315 1.059-.488 1.354-.788 1.354-.249 0-.333-.086-.239-.251.081-.137.069-.181-.026-.094-.094.084-.199.355-.231.603-.116.886-.522 2.154-.687 2.154-.093 0-.117-.135-.052-.302.074-.195-.006-.301-.226-.301-.186 0-.301.112-.257.247.046.137-.112.748-.349 1.356-.306.78-.533 1.094-.76 1.053-.235-.04-.36.153-.452.704-.231 1.374-.414 1.762-.862 1.828-.322.049-.509.31-.724 1.005-.158.519-.295.828-.303.689-.008-.136-.147-.251-.307-.251-.187 0-.439.464-.684 1.256-.319 1.031-.464 1.254-.812 1.24-.241-.008-.422.109-.422.275 0 .485-.685 2.253-.872 2.253-.096 0-.12-.143-.054-.317.078-.205.032-.286-.129-.228-.138.053-.231.189-.205.306.085.396-.767 2.048-1.057 2.048-.158 0-.415.295-.57.653-.155.359-.609 1.004-1.009 1.432-.398.428-.725.858-.725.955 0 .096-.129.175-.288.175-.157 0-.51.492-.785 1.093-.276.601-.69 1.212-.921 1.354-.229.145-.42.398-.424.565-.008.394-.406.898-.834 1.059-.185.068-.516.53-.733 1.025-.219.494-.633 1.053-.921 1.24-.285.189-.522.49-.526.671-.008.408-.492 1.069-.661.9-.069-.068-.286.173-.483.535-.196.363-.56.844-.809 1.069-.25.225-.452.478-.452.564 0 .085-.226.489-.503.897-.277.406-.502.629-.502.494 0-.346-.501-.141-.511.207-.014.555-.57 1.527-.976 1.708-.229.101-.511.378-.627.615-.404.82-.746 1.121-.941.834-.138-.203-.166-.193-.128.04.086.529-.605 1.576-1.085 1.644-.296.042-.477.225-.521.528-.036.264-.269.541-.54.643-.262.101-.686.547-.939.993-.255.446-.613.812-.794.812-.185.002-.385.227-.458.512-.07.28-.337.589-.593.686-.275.104-.681.614-.992 1.249-.322.652-.768 1.206-1.136 1.413-.377.213-.564.45-.496.629.072.189-.07.332-.424.42-.344.087-.617.348-.76.73-.124.325-.299.592-.389.592-.093 0-.4.233-.684.517-.301.303-.641.466-.822.396-.255-.097-.265-.065-.054.189.211.253.197.305-.084.305-.185 0-.29.078-.231.173.058.094-.141.285-.44.428-.314.147-.44.295-.298.345.38.139-.078.863-.544.863-.254 0-.467.235-.637.703-.223.623-.418.818-.645.653-.159-.115-.72.514-.611.689.181.294-.505.937-.893.836-.253-.066-.399.089-.542.573-.151.516-.291.653-.621.607-.336-.046-.498.118-.754.753-.235.589-.44.812-.747.812a.535.535 0 00-.527.402c-.058.221-.185.402-.283.402-.096 0-.177.137-.177.301a.298.298 0 01-.295.302c-.161 0-.39.181-.509.402-.118.221-.154.402-.08.402s-.127.203-.444.45a6.77 6.77 0 00-.951.908c-.203.251-.635.597-.96.766-.326.166-.541.388-.478.488.062.1-.139.346-.447.545-.307.199-1.788 1.581-3.289 3.072-1.503 1.493-3.356 3.256-4.12 3.919-.763.663-2.248 2.053-3.297 3.088-1.049 1.035-2.271 2.12-2.713 2.412-.442.291-.94.677-1.105.86-.165.181-.844.804-1.507 1.382-.663.579-2.072 1.899-3.133 2.934-1.059 1.037-2 1.883-2.088 1.883-.088 0-.733.581-1.433 1.292-.701.709-1.547 1.453-1.881 1.652-.335.197-.609.428-.609.512 0 .378-1.788 1.968-2.562 2.275-.47.189-.854.462-.854.607 0 .147-.249.444-.552.661-.306.217-1.083.9-1.726 1.521-.646.619-1.244 1.126-1.333 1.126-.086 0-.528.339-.978.753-1.307 1.198-2.685 2.289-3.187 2.516-.254.117-.463.334-.463.482 0 .149-.365.418-.812.595-.478.193-.928.553-1.097.876a1.28 1.28 0 01-.89.674c-.428.084-.643.269-.731.624-.099.386-.296.531-.86.625-1.242.209-1.409.294-1.475.744-.039.261-.362.591-.816.828-.414.219-.754.548-.754.733 0 .205-.311.459-.804.651-.588.232-.771.4-.681.633.074.193.014.32-.151.32-.15.002-.769.241-1.378.53-1.029.495-1.071.541-.603.676.348.1.41.174.201.243l-1.206.378c-.679.211-.92.395-.968.733-.038.263-.205.454-.402.456-.185.002-.663.117-1.063.255-.623.217-.683.292-.432.527.235.219.241.303.032.434-.145.088-.34.112-.434.054-.097-.058-.326.024-.513.183a2.83 2.83 0 01-.741.436c-.376.135-.38.157-.046.344.538.301.255.524-.858.677-1.144.159-1.345.336-.893.788.175.174.244.323.153.329-1.358.105-2.046.286-2.425.641-.25.231-.452.515-.452.627 0 .113.118.042.261-.154.225-.306.297-.316.5-.071.183.221.181.292-.012.314-.764.088-2.102.383-2.305.508a.349.349 0 00-.134.408c.128.338-.258.641-1.023.808-.332.07-.74.161-.905.199-.168.038-.299.283-.297.558.004.418-.088.491-.633.491-.776 0-1.342.426-1.214.914.105.402-.472.683-1.221.597-.531-.062-.857.53-.437.79.332.205.091.313-1.087.484-1.051.153-1.501.428-1.577.962-.052.372-.207.463-.868.507-1.622.108-2.229.458-1.304.751.677.215.251.475-1.009.617-.657.075-1.154.205-1.101.29.052.082-.109.219-.356.303-.432.145-.428.155.102.237.483.075.517.125.268.374-.35.35-.659.37-.766.05-.044-.136-.229-.179-.43-.1-.195.074-.297.225-.227.337.068.111-.04.203-.239.205a1.462 1.462 0 00-.643.179c-.217.139-.151.245.289.476.563.294.551.3-.926.447-1.779.174-1.857.208-1.552.699.131.209.31.335.398.281.089-.054.161-.004.161.113 0 .122-.434.213-1.017.213-.717 0-.974.068-.874.233.093.146.056.177-.098.08-.4-.245-1.228.05-1.098.392.081.211-.026.308-.357.324-.412.02-.422.036-.073.12.682.163.804.442.183.416-1.169-.05-2.198.054-2.493.251-.26.173-.246.235.1.448.221.137.583.308.804.378.241.079-.042.145-.704.167a19.56 19.56 0 00-2.001.171c-.828.124-.898.181-.904.727-.008.519-.085.595-.611.615-1.807.064-1.939.095-1.873.442.036.189.291.406.569.483.488.136.486.14-.103.19a9.36 9.36 0 01-.854.043c-.139-.004-.251.07-.251.168 0 .099-.587.179-1.306.179-1.399 0-1.682.231-.704.573.672.235.79.418.252.388-.416-.024-3.298.454-3.517.583-.084.048-.062.255.046.458.274.512-.094.635-2.407.803-1.817.131-1.877.151-1.256.394.36.141.607.332.551.42-.055.091.01.203.144.248.135.044-.52.1-1.455.12-1.81.042-3.241.368-2.805.637a.29.29 0 01.092.41c-.098.159-.076.203.063.119.118-.075.273-.045.341.066.079.127-.197.179-.739.141-.474-.035-1.001.006-1.166.092-.164.084-.733.211-1.26.279-.902.115-1.169.499-.347.499.566 0 .687.375.159.496-.254.058-1.409.181-2.571.271-1.862.145-2.045.193-1.557.398 1.178.495.828.587-3.868 1.025-1.095.103-1.296.177-1.248.472.032.195-.04.352-.163.352-.121 0-.173.078-.114.173.14.225-1.827.426-4.383.448l-2.03.016 1.206.271c.663.151 1.334.278 1.491.286 1.573.07-4.558.801-7.086.844-.902.014-1.414.068-1.137.116.277.05.589.173.693.275.105.101.422.191.704.201l.512.016-.532.161c-2.054.621-26.098.87-28.025.292-.512-.155-1.145-.227-1.409-.161-.385.096-.478.042-.478-.29 0-.225.157-.442.352-.482.193-.042-.778-.134-2.16-.207-2.559-.134-4.823-.488-4.823-.755 0-.081.384-.221.854-.312.727-.143.496-.187-1.558-.305-1.326-.079-2.636-.203-2.913-.282-1.063-.295-1.061-.295-.828-.576.297-.358.084-.533-.651-.533-.664 0-3.738-.372-4.55-.55-.438-.097-.374-.153.502-.43l1.005-.318-1.909-.121c-2.599-.162-3.517-.456-2.802-.898.477-.295.007-.524-1.215-.589-.713-.04-1.329-.17-1.369-.291-.04-.121-.314-.223-.609-.227l-.536-.008.603-.344.603-.343-1.206-.061c-.663-.034-1.291-.146-1.396-.251-.105-.104-.529-.191-.943-.191-.413 0-.808-.09-.877-.201-.128-.207-.041-.253 1.006-.524.455-.117.106-.189-1.426-.29-2.106-.14-3.132-.434-2.442-.701.67-.257.396-.693-.453-.719-.442-.014-.871-.04-.954-.06-1.278-.29-1.843-.372-2.261-.334-.484.046-.488.038-.109-.247.217-.161.491-.257.609-.211.118.044.393-.052.611-.217.366-.278.304-.302-.809-.316a12.87 12.87 0 01-2.311-.273l-1.105-.261.653-.34c.854-.444.828-.607-.07-.44-.49.092-.681.068-.591-.076.083-.135-.115-.215-.533-.217-.751-.004-1.436-.362-1.017-.533a.446.446 0 00.251-.386c0-.255-.841-.386-2.158-.339-.137.006-.199-.071-.139-.169.061-.099-.234-.181-.655-.183l-.765-.006.552-.344c.304-.187.553-.394.553-.456 0-.064-.384-.138-.854-.167a11.906 11.906 0 01-1.632-.223c-.428-.096-.926-.13-1.106-.074-.268.082-.265.06.023-.125.192-.124.436-.387.542-.586.17-.318.094-.364-.651-.394-.464-.018-.871-.115-.904-.213-.033-.101-.319-.141-.635-.093-.788.125-.946-.243-.265-.613l.559-.303-.503-.038c-.276-.02-.751-.034-1.055-.028-.304.004-.552-.073-.552-.171 0-.099-.17-.181-.378-.181a.897.897 0 01-.607-.277c-.18-.217-.142-.3.177-.382.733-.193.431-.533-.448-.506-1.419.044-1.795-.021-1.639-.274.099-.158.008-.197-.287-.118-.402.104-.411.084-.134-.312.285-.406.258-.434-.655-.691-.524-.147-1.179-.295-1.455-.33-.276-.034-.638-.078-.804-.1-.184-.024-.067-.173.302-.382l.603-.342-.603-.058c-.332-.034-.808-.163-1.058-.289-.25-.127-.762-.235-1.137-.243-.526-.012-.635-.075-.473-.27a.605.605 0 01.514-.201c.167.029.338-.046.381-.166.047-.135-.462-.312-1.283-.446-.749-.125-1.393-.324-1.433-.443-.05-.148-.159-.142-.354.019-.183.152-.282.16-.282.022 0-.117.181-.27.402-.34.817-.259.358-.597-.753-.557-.138.006-.251-.07-.251-.168 0-.099-.226-.179-.503-.179-.398 0-.502-.101-.502-.486 0-.296.139-.525.352-.581.193-.051-.051-.087-.542-.081-.491.006-.926-.09-.967-.213-.041-.122-.193-.178-.338-.122-.184.07-.235-.042-.171-.376.082-.428-.012-.498-.946-.715-.57-.131-1.21-.24-1.422-.24-.459 0-.515-.309-.086-.474.588-.225.288-.494-.703-.631-.943-.128-1.005-.173-1.005-.721 0-.322-.113-.595-.251-.607-1.102-.098-1.639-.209-2.02-.412-.438-.235-.436-.239.161-.486l.603-.249-.502-.099c-1.983-.392-2.11-.442-2.11-.842 0-.277-.156-.422-.503-.466-.276-.034-.609-.203-.74-.372-.13-.169-.334-.247-.451-.175-.148.091-.155-.022-.023-.369.184-.485.152-.511-.955-.748-1.463-.315-1.82-.563-1.327-.922.373-.274.277-.332-.456-.274-.536.043-1.272-.556-1.272-1.035 0-.371-.419-.53-1.608-.612-.579-.041-.742-.157-.921-.654-.171-.472-.367-.624-.905-.703-.569-.082-.697-.195-.749-.653-.049-.426-.171-.553-.533-.553-.318 0-.596-.213-.863-.667-.312-.528-.616-.725-1.476-.96-.907-.247-1.077-.366-1.039-.722.038-.369-.092-.446-.954-.564-.923-.127-.989-.173-.879-.611.1-.4.005-.521-.629-.784-.411-.173-.962-.313-1.224-.313-.492 0-.679-.503-.242-.647.471-.157-.079-.599-.612-.495-.623.125-1.131-.211-1.131-.745 0-.402-.25-.599-1.169-.927-.443-.156-.539-.287-.439-.603.108-.339.036-.401-.477-.401-.332 0-.66-.091-.729-.201-.068-.111-.354-.201-.636-.201-.435 0-.495-.071-.396-.465.097-.385.007-.502-.545-.703-.364-.131-.801-.239-.971-.239-.216 0-.283-.141-.221-.464.077-.4-.03-.503-.751-.718-.688-.207-.821-.325-.735-.651.076-.293-.03-.45-.399-.59-.277-.105-.586-.141-.688-.079-.101.064-.184.018-.184-.098 0-.117-.181-.213-.402-.213-.221 0-.402-.091-.402-.201 0-.111.091-.201.201-.201a.207.207 0 00.201-.213c0-.117-.079-.163-.175-.105-.21.131-1.355-.89-1.278-1.139.03-.095-.398-.372-.95-.613-.739-.326-1.005-.553-1.008-.862-.004-.308-.214-.488-.794-.679-.514-.171-.826-.412-.897-.694-.066-.263-.386-.532-.819-.689-.476-.173-.71-.384-.71-.641 0-.239-.183-.432-.482-.506-.265-.067-.767-.477-1.115-.909-.348-.432-.764-.787-.924-.787-.161 0-.292-.179-.292-.398 0-.257-.234-.505-.653-.693-.915-.41-1.421-.854-1.265-1.106.073-.118.007-.215-.148-.215-.154 0-.605-.361-1.001-.803-.441-.491-.904-.806-1.189-.81-.594-.008-1.17-.44-1.17-.88 0-.193-.248-.427-.577-.541-.398-.139-.634-.4-.76-.844-.139-.488-.312-.657-.717-.705-.402-.047-.549-.189-.596-.577-.047-.388-.237-.573-.758-.742-.479-.156-.731-.381-.812-.723-.08-.342-.318-.555-.761-.683-.382-.109-.646-.316-.646-.507 0-.178-.406-.538-.904-.803-.497-.264-.904-.605-.904-.758 0-.153-.226-.38-.503-.506-.276-.127-.502-.35-.502-.499 0-.343-.767-1.119-.979-.988-.088.054-.313-.219-.5-.611-.185-.39-.443-.676-.572-.631-.285.094-.963-.549-.963-.915 0-.144-.32-.389-.71-.542-.429-.169-.67-.38-.61-.537.054-.142-.1-.365-.344-.496-.654-.35-2.353-2.038-2.354-2.339 0-.145-.274-.416-.607-.603-.333-.189-.717-.593-.853-.896-.136-.304-.313-.553-.394-.553-.08 0-.553-.406-1.05-.904-.498-.496-.987-.904-1.088-.904-.1 0-.231-.187-.291-.416a.817.817 0 00-.526-.527c-.23-.06-.417-.177-.417-.261 0-.082-.401-.541-.891-1.015-.49-.476-.944-1.075-1.009-1.332-.073-.294-.266-.468-.515-.468-.353 0-.509-.318-.42-.86.014-.085-.13-.215-.32-.288-.585-.225-1.227-.882-1.354-1.386-.066-.264-.25-.481-.407-.481-.157 0-.443-.265-.634-.588-.192-.326-.55-.641-.795-.704-.245-.06-.633-.428-.862-.816-.228-.387-.54-.705-.691-.705-.152 0-.487-.498-.745-1.109s-.563-1.079-.679-1.041c-.239.08-1.166-.949-1.082-1.2.03-.092-.003-.167-.075-.167-.284 0-.946-.761-1.061-1.219-.109-.432-.207-.509-.625-.481-.27.018-.723-.651-.621-.916.076-.199-.015-.297-.276-.297-.385 0-1.35-1.094-1.258-1.425.027-.095-.128-.265-.343-.38-.216-.114-.533-.502-.706-.86a7.575 7.575 0 00-.71-1.153c-.34-.43-.427-.459-.617-.201-.195.265-.21.265-.124-.01.135-.43-.383-1.598-.709-1.598-.342 0-.958-.715-.958-1.113 0-.169-.159-.366-.352-.438a1.333 1.333 0 01-.848-1.212c-.004-.338-.124-.452-.478-.452-.365 0-.544-.185-.794-.82-.177-.45-.49-.864-.695-.916-.22-.059-.531-.509-.76-1.098-.269-.693-.527-1.034-.841-1.113-.314-.08-.515-.347-.658-.874-.13-.482-.35-.798-.603-.864-.22-.056-.452-.271-.516-.474a4.965 4.965 0 00-.302-.72 1.908 1.908 0 01-.187-.753c0-.257-.133-.406-.361-.406-.495 0-.844-.39-.844-.945 0-.253-.09-.472-.201-.486a4.05 4.05 0 01-.402-.076 4.925 4.925 0 00-.393-.075c-.105-.014-.252-.347-.326-.743-.09-.48-.282-.774-.58-.886-.305-.117-.55-.505-.782-1.246-.227-.722-.487-1.142-.787-1.274-.252-.111-.478-.416-.516-.7-.078-.564-.575-1.205-.936-1.205-.212 0-.418-.497-.815-1.974-.073-.269-.236-.424-.385-.367-.361.138-.71-.264-.71-.818 0-.358-.14-.497-.596-.587-.329-.066-.637-.267-.685-.448a27.399 27.399 0 01-.221-.931c-.074-.331-.399-.846-.723-1.143-.323-.297-.588-.733-.588-.969 0-.233-.097-.606-.215-.827-.17-.32-.273-.352-.5-.165-.32.265-.294.309-.758-1.316-.235-.822-.363-.997-.705-.959-.326.036-.463-.117-.626-.703a6.484 6.484 0 01-.209-1.425c-.001-.559-.066-.661-.372-.581-.428.113-.833-.42-.838-1.101-.005-.727-.307-1.083-.667-.784-.35.29-.39.233-.737-1.047-.145-.534-.407-1.027-.583-1.093-.53-.197-.81-.705-.817-1.485-.003-.404-.061-.88-.128-1.055-.141-.366-.613-.424-.725-.088-.074.223-.43-.8-.654-1.887-.077-.372-.24-.553-.503-.553-.278 0-.448-.215-.598-.753-.115-.414-.21-.816-.21-.891 0-.076-.093-.379-.206-.675-.165-.434-.259-.492-.489-.301-.234.195-.323.098-.498-.531-.117-.422-.213-.996-.214-1.28-.002-.659-.38-1.063-.727-.775-.191.16-.304.026-.466-.557-.117-.422-.213-1.045-.214-1.387-.001-.765-.15-.93-.614-.681-.311.167-.391.064-.593-.759a24.994 24.994 0 01-.368-1.845c-.127-.844-.152-.872-.48-.545-.327.328-.352.318-.47-.215a30.396 30.396 0 00-.29-1.163c-.09-.332-.172-.76-.182-.955-.039-.759-.092-.932-.253-.832-.092.057-.17.302-.173.543-.005.378-.034.394-.199.11a2.39 2.39 0 01-.25-.703 2.091 2.091 0 00-.233-.653c-.096-.155-.235-.788-.308-1.407l-.133-1.127-.323.703c-.303.659-.326.671-.363.201a6.984 6.984 0 01-.008-.904c.024-.299-.014-.334-.15-.133-.125.185-.225-.066-.317-.803-.197-1.574-.233-1.755-.385-1.905-.076-.077-.141.034-.145.247-.003.211-.15.564-.324.785-.308.39-.315.384-.219-.17.055-.316-.024-1.039-.175-1.608-.151-.569-.276-1.328-.278-1.688-.002-.79-.397-.884-.42-.1-.009.309-.064.42-.124.251-.06-.165-.227-.573-.37-.904-.143-.332-.317-1.055-.387-1.608-.236-1.857-.35-2.297-.58-2.253-.128.024-.282.269-.345.545-.071.315-.172-.103-.269-1.117-.085-.891-.22-1.93-.3-2.311l-.145-.692-.31.581-.309.581-.157-.882c-.087-.485-.158-1.13-.158-1.435 0-.304-.067-.553-.15-.553-.081 0-.19-.5-.24-1.111-.12-1.451-.55-1.957-.585-.687-.02.8-.038.83-.162.291-.076-.331-.075-.838.002-1.127.078-.29.061-.651-.035-.804-.097-.153-.187-.189-.2-.078-.06.526-.347-.925-.364-1.847-.028-1.411-.419-1.614-.436-.225l-.013 1.067-.286-.904c-.157-.497-.247-1.011-.199-1.142.048-.13-.004-.269-.116-.307-.112-.036-.258-.969-.324-2.072-.109-1.801-.145-1.945-.36-1.425-.146.358-.293.493-.38.352-.077-.127-.09-.312-.027-.412.062-.103.023-.215-.089-.251-.111-.038-.291-1.017-.4-2.179-.26-2.761-.365-3.217-.708-3.086-.152.058-.314.303-.361.542-.047.24-.111-.018-.144-.57a63.787 63.787 0 00-.104-1.507l-.199-2.261c-.126-1.445-.203-1.718-.426-1.533-.149.124-.282.464-.295.753-.013.292-.1.032-.194-.577l-.386-2.511a37.343 37.343 0 01-.384-4.22c-.017-.44-.072-.525-.204-.316-.137.215-.207.143-.285-.301-.057-.324-.073.044-.036.818.052 1.073.025 1.264-.114.803-.189-.623-.264-1.619-.52-6.932-.14-2.912-.162-3.037-.334-1.909a16.157 16.157 0 00-.162 2.29c.044 2.108-.195.828-.483-2.582-.356-4.226-.406-7.089-.337-19.281.03-5.237.02-9.557-.02-9.597-.041-.043-.142 4.063-.223 9.121-.145 9.028-.37 14.336-.505 11.91a60.867 60.867 0 00-.16-2.11c-.155-1.581-.24-254.107-.087-256.912.118-2.166.185-2.52.489-2.577.317-.06.352.142.352 2.058 0 1.464.071 2.124.23 2.124.166 0 .194-.476.101-1.684-.071-.927-.07-2.248.002-2.936l.13-1.251 5.244.121c2.884.067 25.771.178 50.86.246zm71.187.217c-.194.05-.51.05-.704 0-.193-.05-.035-.092.352-.092s.545.042.352.092zm139.389.096c-.058.092.217.168.611.168s.715-.035.715-.078c0-.165-1.23-.248-1.326-.09zm114.059-.084c0 .083.318.158.704.166.387.008.703-.06.703-.15 0-.092-.318-.166-.703-.166-.386 0-.704.067-.704.15zm3.318.054c.07.112.211.152.313.088.28-.172.227-.292-.126-.292-.173 0-.255.091-.187.204zm3.916-.004c0 .111.085.202.189.202.105 0 .245-.091.314-.202.068-.11-.016-.2-.189-.2s-.314.09-.314.2zm1.56-.058c.251.048.613.046.804-.004.192-.05-.012-.09-.455-.088-.442.002-.598.044-.349.092zm4.632-.005c.144.058.319.05.386-.016.066-.067-.053-.114-.264-.106-.235.01-.283.058-.122.122zm-302.229.2c.145.059.318.052.385-.015s-.052-.114-.264-.106c-.234.01-.281.058-.121.122zm37.779 0c.145.059.318.052.385-.015.066-.067-.052-.114-.264-.106-.234.01-.282.058-.121.122zm12.258 0c.145.059.318.052.385-.015.066-.067-.052-.114-.264-.106-.234.01-.282.058-.121.122zm98.77.165c0 .166.127.301.281.301.153 0 .228-.083.165-.185-.064-.103.044-.228.239-.278.236-.062.179-.1-.164-.116-.34-.015-.521.082-.521.278zm1.491-.168a.775.775 0 00.503 0c.138-.056.026-.102-.252-.102-.277 0-.389.046-.251.101zm6.644.004c.144.058.319.05.385-.016.067-.067-.052-.114-.263-.106-.235.01-.283.058-.122.122zm19.833.067c.071.112.211.152.314.088.279-.172.227-.293-.127-.293-.173 0-.255.092-.187.205zm9.103-.067c.145.058.32.05.386-.016.067-.067-.052-.114-.263-.106-.235.01-.283.058-.123.122zm3.155.061c-.07.114.01.148.189.08.348-.134.412-.278.123-.278-.105 0-.245.089-.312.198zm79.223-.066a.772.772 0 00.502 0c.139-.055.027-.1-.251-.1-.277 0-.39.045-.251.1zm6.43 0a.775.775 0 00.503 0c.138-.055.026-.1-.251-.1-.278 0-.39.045-.252.1zm4.524.012c.305.046.757.045 1.005-.003.247-.048-.002-.085-.555-.084-.553.002-.756.04-.45.087zm1.718-.007c.145.058.319.05.386-.016.066-.067-.052-.114-.263-.106-.236.01-.284.058-.123.122zm4.955.055c.067.105.252.14.414.079.416-.16.368-.272-.118-.272-.227 0-.36.087-.296.193zm21.456.168c.161.193.438.23.944.128.394-.08.917-.15 1.162-.156.245-.006.396-.06.333-.122-.06-.06-.685-.113-1.386-.116-1.055-.006-1.24.04-1.053.266zm-173.87.041c0 .11.14.201.313.201s.257-.09.189-.2c-.068-.111-.209-.201-.313-.201a.195.195 0 00-.189.2zm176.635.034c0 .092.137.167.301.167.165 0 .302-.075.302-.167 0-.092-.137-.168-.302-.168-.164 0-.301.076-.301.168zm33.93 126.766c-.008 69.354-.074 127.271-.146 128.708l-.131 2.613-.189-1.508c-.114-.924-.171-50.752-.147-128.909.023-70.071.045-127.538.049-127.704.004-.179.122-.098.293.201.249.434.285 17.64.271 126.599zM27.392 16.411c.145.058.318.05.385-.016.067-.067-.052-.114-.264-.106-.234.01-.281.058-.12.122zm216.815.005c.251.047.613.046.804-.005.193-.05-.012-.09-.454-.087-.443.002-.599.043-.35.091zm181.657-.01a.772.772 0 00.502 0c.139-.055.026-.1-.251-.1s-.39.045-.251.1zM16.176 22.38c0 .165.09.357.201.425.111.069.201-.011.201-.177 0-.166-.09-.357-.2-.426-.111-.068-.201.012-.201.178zm.256 1.53c0 .498.04.701.087.453a2.87 2.87 0 000-.905c-.048-.248-.087-.045-.087.453zm.022 3.919c0 1.326.033 1.843.072 1.148.04-.695.04-1.78 0-2.412-.04-.631-.072-.062-.072 1.264zm33.323.051l-23.57.051.085 125.141c.054 79.38.159 126.344.285 128.43.146 2.402.274 3.334.476 3.459.185.114.321.056.413-.173.075-.191.157.378.182 1.262.025.884.065 1.834.09 2.11.023.277.11 1.858.19 3.516.082 1.658.184 3.053.227 3.099.168.179.24-.143.375-1.692.078-.884.165-1.632.194-1.66.043-.046.277 2.825.415 5.096.02.342.094.714.162.824.069.111.056.987-.028 1.945-.084.959-.093 2.171-.02 2.693l.133.949.026-1.156c.018-.774.11-1.155.278-1.157.194-.002.192-.043-.009-.169-.21-.133-.205-.213.03-.406.16-.133.251-.442.204-.685-.082-.432-.079-.43.12.02.235.532.602 4.171.666 6.611.025.908.074 1.565.11 1.459.037-.107.206-.054.376.116.436.437.488.292.285-.799-.133-.708-.12-.897.048-.728.124.123.218.786.209 1.469-.01.685.041 1.079.112.878.07-.203.146.207.167.909.066 2.202.138 2.779.345 2.777.2 0 .24-.181.28-1.284.012-.324.072-.537.134-.475.219.219.78 4.096.786 5.43.003.748.073 1.357.156 1.357s.151-.226.151-.503c0-.524.29-.685.453-.251.052.139.256 1.178.454 2.311.248 1.415.445 2.06.631 2.06.166 0 .282-.254.299-.653.035-.802.29.811.495 3.122.145 1.65.478 1.994.706.73.08-.444.134-.527.15-.231.015.249.19 1.063.387 1.808.198.744.347 1.674.331 2.066-.022.557.052.719.336.742.299.022.348-.089.274-.613-.07-.495-.02-.434.217.263.17.498.335 1.175.368 1.507.034.332.13.764.216.959.085.194.107.534.05.753-.058.219-.025.446.072.506.097.061.232-.142.3-.452.068-.307.147-.651.176-.761.074-.286.534 2.011.653 3.265.095.997.465 1.517.465.653 0-.221.08-.402.176-.402.096 0 .329.792.516 1.759.188.968.413 2.029.5 2.361l.16.603.208-.503.207-.502.233.595c.128.327.18.81.113 1.073-.076.303-.044.43.09.347.215-.132.3.256.233 1.049-.05.579.265.581.668.006l.313-.446.005.597c.01 1.011.706 2.811 1.075 2.779.18-.014.326.063.326.171 0 .109.144.693.32 1.298.278.955.352 1.055.569.758.216-.296.294-.181.585.854.184.657.335 1.358.335 1.557 0 .29.057.316.282.129.3-.249.42.002.92 1.941.12.47.442 1.075.714 1.348.272.272.495.621.495.776 0 .153.272.655.605 1.115.333.459.753 1.218.934 1.688.181.469.482.989.668 1.154.187.167.494.723.684 1.238.19.516.47.986.626 1.045.154.06.475.558.712 1.109.236.55.548 1.045.692 1.101.144.054.42.575.612 1.156.193.578.548 1.241.789 1.47.241.23.586.792.766 1.25.18.459.558 1.081.84 1.385.281.305.512.679.512.834 0 .155.222.504.493.776.27.269.673.898.893 1.396.22.499.525.904.677.904.153 0 .48.406.727.901.247.494.535.952.641 1.018.106.065.322.429.48.806.158.378.503.905.767 1.168.264.265.725.898 1.024 1.408.3.511.627.929.728.929.102 0 .423.408.714.904.292.499.598.904.68.904.082 0 .245.211.363.469.117.257.795 1.151 1.507 1.989.711.838 1.41 1.803 1.551 2.146.142.342.336.621.432.621.096 0 .415.384.709.854s.594.9.666.955c.29.223 2.421 3.181 2.421 3.362 0 .341.752.904.897.671.241-.392.51-.221.51.323 0 .617.415 1.873.62 1.873.075 0 .205-.609.29-1.356.177-1.58.168-164.685-.01-165.244-.242-.761-3.202-.717 43.862-.641l30.393.051v23.913l-1.356.004c-1.559.004-2.26.267-1.247.47.354.07 1.01.128 1.456.128 1.458 0 .697.165-2.371.511-3.166.358-3.928.565-3.532.96.169.169.033.282-.531.438-.576.163-.775.332-.828.704-.077.536-.633 1.453-.633 1.043 0-.541-.804.169-.818.723-.008.3-.083.72-.166.933-.143.363-.16.365-.29.028-.115-.3-.19-.318-.449-.103-.28.233-.3 10.05-.197 99.242.062 54.441.113 99.098.112 99.235 0 .138.138.251.307.251.414 0 1.276.577 1.898 1.268.438.486.781.657 1.461.727.083.008.151.157.151.332 0 .185.336.45.795.631.437.171.788.368.78.436-.047.394.066.625.307.625.151 0 .504.181.785.402.281.221.7.402.932.402.231 0 .42.09.42.201 0 .11-.098.201-.218.201-.119 0-.179.114-.133.251.083.247.201.283 1.102.329.31.017.538.234.734.706.239.57.419.705 1.109.822.452.076.822.221.822.321 0 .101-.09.183-.201.183-.11 0-.201.09-.201.201 0 .111.158.203.352.203.193 0 .611.137.927.301.317.165.688.3.825.3s.335.293.439.653c.17.585.267.653.933.653.711 0 1 .322.543.603-.286.177-.249.53.051.472.477-.094 1.768.253 1.651.442-.065.107-.022.191.095.191.117 0 .202.068.189.151-.07.444.064.605.426.51.23-.06.402-.006.402.127 0 .163.11.173.37.034.458-.245 1.275.251 1.113.677-.11.286.844 1.063 1.052.856.143-.142.77.484.949.949.112.293.193.313.437.11a.93.93 0 00.299-.625c0-.589.367-.442.438.173.039.334.204.579.416.619.334.062.353-5.146.397-106.803.074-172.119.068-186.029-.087-186.372-.092-.206-.016-.445.208-.647.323-.293 5.719-.317 61.234-.277 33.482.025 65.341 0 70.794-.056 9.298-.094 9.929-.078 10.104.252.105.193.39.358.633.365.382.013.396.035.089.156-.344.136-.362 6.239-.392 146.68-.024 113.461.022 146.593.207 146.78.351.35.709-.082.687-.832-.014-.494.032-.56.251-.359.181.165.203.323.069.488-.264.322-.033.661.452.661.363 0 .472-.191.412-.719-.029-.247.707-.683 1.292-.768.253-.036.416-.239.456-.571.048-.407.203-.54.755-.645.384-.07.782-.076.887-.012.209.129 1.008-.305 1.008-.548 0-.085-.136-.153-.301-.153-.715 0-.209-.382.854-.643 1.001-.245 1.147-.342 1.093-.717-.046-.336.068-.463.503-.559 1.04-.227 1.081-.261.952-.774-.108-.438-.036-.516.649-.707.424-.119.975-.215 1.224-.215.51-.002.611-.356.151-.533-.543-.207-.318-.416.576-.538 1.264-.175 1.964-.533 1.835-.941-.08-.253.086-.393.673-.568.43-.129.959-.235 1.176-.235.534 0 .705-.209.436-.535-.177-.211-.071-.334.498-.571.396-.164.814-.301.929-.301.184 0 .285-.267.237-.633-.022-.163 1.473-.774 1.889-.774.166 0 .375-.193.464-.43.086-.237.514-.629.946-.872.563-.313.82-.609.897-1.027.1-.55.12-.56.339-.183.776 1.345.756 3.887.758-98.917l.002-98.8-.503-.116c-.377-.089-.514-.265-.554-.714-.119-1.328-.282-1.901-.539-1.901-.148 0-.339.25-.426.553-.14.494-.171.442-.301-.5-.235-1.714-.372-2.088-.748-2.05-.707.07-.876-.012-.759-.376.094-.297-.057-.404-.84-.593a18.897 18.897 0 00-2.203-.343c-.685-.06-1.4-.171-1.593-.243-.318-.123-.314-.147.04-.286.213-.084.697-.158 1.075-.166 1.461-.031.35-.254-1.479-.296-1.059-.026-2.018-.136-2.126-.245-.129-.129-.183-4.369-.149-11.944l.052-11.744 37.026-.05 37.025-.05.012 67.569c.014 85.539.048 98.837.259 99.269.199.402.615.252.454-.164-.058-.151-.016-.328.091-.394.106-.066.325-.432.482-.812.183-.436.426-.689.663-.689.229 0 .553-.314.828-.804.249-.442.528-.804.623-.804.092 0 .386-.434.651-.966.299-.599.585-.933.753-.877.183.061.23-.018.145-.239-.078-.205-.024-.329.147-.329.153 0 .331-.312.406-.71.072-.389.219-.655.323-.59.105.066.191.022.191-.095 0-.116.137-.213.302-.213.188 0 .393-.339.544-.904.197-.738.328-.904.703-.904.278 0 .461-.121.461-.304 0-.388.856-2.094 1.055-2.102.082-.004.15.085.15.195 0 .111.103.201.225.201.143 0 .185-.215.113-.573-.125-.617.301-1.436.745-1.436.141 0 .463-.44.714-.979.343-.734.548-.959.814-.888.283.074.38-.079.488-.778.161-1.035.553-1.626.971-1.467.231.089.385-.197.663-1.226.283-1.045.398-1.254.514-.936.083.223.261.474.396.557.159.098.195.07.103-.083-.209-.337.428-2.373.785-2.512a.97.97 0 01.603 0c.227.087.302-.034.302-.492 0-.979.18-1.256.723-1.119.388.096.482.042.482-.28 0-.221.135-.661.3-.976.164-.318.309-.802.317-1.079.01-.276.064-.388.119-.252.173.428.671.282.671-.199 0-.538.641-2.16.854-2.16.082-.002.151.179.151.4 0 .754.361.406.468-.452.181-1.419.372-2.16.559-2.16.098 0 .178.098.178.219 0 .118.107.181.235.138.131-.044.354-.651.497-1.35.299-1.465.359-1.563.761-1.228.36.298.75.101.704-.359-.083-.836.046-1.188.51-1.399.273-.125.541-.434.593-.685.468-2.283.579-2.615.755-2.297.29.516.567.388.567-.261 0-.326.091-.647.201-.716.111-.068.201-.372.201-.677 0-.534.583-1.591.597-1.081.004.139.133.251.289.251.193 0 .316-.329.386-1.055.056-.579.167-1.35.243-1.714.123-.581.169-.619.388-.319.306.418.782.172.649-.338-.054-.203-.01-.78.099-1.284.176-.834.249-.916.781-.916.458 0 .587-.091.587-.412 0-.229.101-.814.223-1.301.183-.727.302-.88.653-.844.241.027.41-.06.384-.192-.024-.129.119-.899.32-1.709.289-1.167.395-1.378.512-1.018.08.249.229.452.334.452.162 0 .291-.792.203-1.276-.017-.095.052-.276.15-.402.101-.127.243-.569.32-.985.14-.782.392-.972.591-.452.247.645.514.253.516-.754 0-.96.557-3.5.599-2.736.024.432.617.952.629.55.016-.561.203-2.315.349-3.289l.151-1.005.298.653c.305.671.801.888.801.352 0-.165-.08-.302-.18-.302-.177 0-.017-.94.287-1.676.082-.203.173-.564.197-.804.026-.237.062-.568.078-.735.026-.243.073-.233.237.05.362.621.537.382.659-.904.065-.689.177-1.6.248-2.02.124-.735.14-.749.42-.349.411.586.671.327.657-.657-.012-.961.07-1.471.271-1.674.078-.077.141-.45.141-.83 0-.629.044-.681.48-.571.466.117.484.078.589-1.336.132-1.793.333-3.131.55-3.664.135-.333.165-.289.177.25.006.359.103.653.213.653.201 0 .275-.348.235-1.106-.022-.401.267-2.6.513-3.918l.132-.703.113.787c.191 1.339.542 1.069.691-.528.076-.806.253-2.098.396-2.872.217-1.183.281-1.318.4-.854.233.921.534.621.534-.534 0-.923.129-2.159.668-6.449.052-.418.086-.323.106.312.016.504.113 1 .211 1.105.1.104.231.372.291.593.061.221.083-.004.049-.503-.057-.828.59-6.965.803-7.614.145-.44.29-.148.406.804.057.482.131.9.161.931.03.032.121-1.821.201-4.116.151-4.276.641-9.915.693-7.962.016.567.159 1.337.318 1.708.267.627.293.416.36-2.941.04-1.99.094-58.959.118-126.599.026-67.64.087-124.133.135-125.54l.086-2.56-23.855-.053c-30.434-.068-336.851-.07-368.14-.002zm-24.65 34.965c.053 19.203.142 46.292.198 60.198.069 17.082.035 25.242-.103 25.157-.12-.074-.198.105-.19.438.013.497.035.517.187.163.102-.236.162 1.623.147 4.521-.02 3.895-.052 4.441-.153 2.613l-.126-2.311.053 2.813c.029 1.548.04 3.04.024 3.316-.131 2.288.047 96.335.186 98.264l.18 2.512.143-2.713c.079-1.491.124-53.826.1-116.299-.04-107.781-.06-113.587-.392-113.587s-.345 1.835-.254 34.915zm.225-33.86c-.055.138-.101.025-.101-.252 0-.276.046-.389.101-.25a.774.774 0 010 .502zm36.842 21.458c-2.062.232-7.48.227-7.335-.007.078-.126 1.727-.19 4.383-.17 2.994.021 3.87.074 2.952.177zm2.718-.016c-.065.106-.251.141-.413.079-.416-.16-.367-.271.118-.271.228 0 .36.086.295.192zm159.395-.07c-.067.066-.241.073-.386.015-.161-.064-.113-.111.123-.121.211-.009.329.039.263.105zm2.813 0c-.066.066-.241.073-.386.015-.161-.064-.112-.111.123-.121.211-.009.329.039.263.105zm-157.758 1.25c.019.018.094.304.167.636.122.557.361.702 1.027.624.315-.037.48 1.44.479 4.277-.001 2.511-.24 3.938-.662 3.943-.39.005-.68.267-.832.755-.121.388-.036.5.574.755s.735.42.846 1.116c.117.727.182.804.59.702.432-.109.466-.042.6 1.218.282 2.624-.168 6.227-.628 5.03-.236-.617-.487-.344-.487.532 0 .803-.06.901-.804 1.32-.478.268-.804.6-.804.817 0 .2-.17.41-.377.464-.207.054-3.971.087-8.364.074l-7.987-.025-.06-1.709c-.084-2.42-.085-6.058-.004-12.678.04-3.16-.002-6.144-.091-6.631-.1-.548-.085-.98.04-1.13.267-.323 3.298-.39 10.815-.24 3.26.064 5.943.132 5.962.15zm160.784-.051l1.061.114-.056 1.944-.058 1.944-.904.136c-.497.075-3.288.142-6.204.15l-5.297.016.097.507c.054.279.016.557-.085.619-.217.134-.201 11.955.016 12.309.115.184 1.694.257 6.264.288l6.113.042.06 1.256c.052 1.116.018 1.255-.317 1.255-.436 0-.955.838-.79 1.27.078.206-.072.33-.5.416-1.124.225-14.796.141-14.939-.091-.072-.118-.141-.515-.153-.882-.016-.587-.06-.64-.376-.444-.58.363-.856-.134-1.014-1.836-.209-2.233-.276-2.637-.453-2.804-.088-.083-.114.278-.058.801s.024.902-.072.842c-.099-.06-.179-.261-.181-.448-.002-.263-.04-.28-.173-.072-.126.2-.201.15-.295-.2-.159-.593-.121-11.01.048-13.03l.125-1.506.164 1.406c.091.774.173 1.52.183 1.658.022.296.555.344.555.05 0-.11-.068-.2-.153-.2-.084 0-.096-.873-.026-1.939.111-1.727.177-1.977.603-2.306.265-.203.573-.37.683-.373.113-.003.293-.208.402-.457.171-.387.4-.469 1.606-.57 1.637-.138 12.561-.034 14.124.135zM51.691 54.51c-.043.467-.077.034-.076-.96 0-.995.035-1.377.077-.848.041.528.04 1.342-.001 1.808zm.122 2.57c.056.837.028 1.639-.06 1.782-.09.145-.175-.57-.192-1.61-.035-2.221.11-2.32.252-.171zm6.647-1.119c-.037.11-.048 1.055-.025 2.1l.041 1.898 2.814-.066c1.547-.036 3.083-.077 3.412-.09l.6-.024.003-1.407.004-1.406-.553.038c-.486.033-.552-.034-.552-.553v-.59l-1.86-.027c-1.021-.014-2.3-.037-2.838-.05-.54-.013-1.01.066-1.046.177zm119.267.093c.43.23.433.252.08.52-.408.309-.459.29 1.002.377.695.041.934.391.938 1.371.003.78.266 1.004.491.419.237-.62.488.009.729 1.831.322 2.436.151 9.755-.254 10.851-.255.692-.307.737-.408.352-.212-.811-.555-.472-.555.55 0 1.142-.382 1.663-1.182 1.612-.289-.018-1.476-.013-2.636.012-2.012.043-2.059.053-1.005.227 2.652.438 2.544.408 2.11.587-.443.184-7.899.22-8.81.044-.837-.163-.26-.447.973-.48 2.387-.063 2.063-.335-.41-.343-1.441-.005-2.845-.066-3.12-.135-.586-.147-1.473-1.615-1.682-2.786-.13-.727-.16-.754-.498-.448-.341.309-.365.242-.488-1.337-.168-2.154-.138-8.606.046-9.9.14-.99.145-.995.299-.355.181.752.467.998.787.678.164-.164.127-.223-.14-.223-.27 0-.324-.09-.21-.352.083-.193.168-.532.188-.754.093-1.023.311-1.282 1.169-1.396.464-.062.98-.098 1.145-.08.645.07 2.071-.037 1.962-.146-.063-.063-.407-.16-.763-.217-1.516-.239-1.513-.422.007-.55l2.411-.203c1.883-.157 7.377.035 7.824.274zm77.028-.206c2.552.051 3.06.217 2.009.654-.52.216-.476.24.738.389.707.087 1.362.275 1.453.418.197.31.257 1.462.201 3.776-.023.94.036 2.115.132 2.613.167.875.177.846.326-.905.199-2.372.215-2.477.378-2.64.176-.177.277 5.299.164 8.86-.048 1.498-.43.44-.56-1.554-.071-1.07-.209-1.89-.31-1.827-.1.061-.163.352-.14.646.022.294.026 1.73.01 3.192l-.031 2.657-.602.312c-.342.176-.603.474-.603.684 0 .205-.119.47-.262.59-.174.145-2.471.226-6.904.244-6.28.025-6.686.005-7.431-.376-.461-.235-.8-.557-.812-.773-.012-.203-.123-1.545-.245-2.981-.223-2.6-.115-10.64.158-11.983.165-.8.497-.92 2.735-.986.885-.026 1.383-.088 1.106-.138-.278-.05-.589-.172-.694-.274-.104-.1-.414-.183-.687-.183-.271 0-.43-.065-.35-.145.135-.135 5.07-.38 6.855-.34l3.366.07zm161.757.839c.185 1.134-.032 4.738-.264 4.369-.327-.527-.88.092-.936 1.055-.082 1.377-.203 1.702-.717 1.936-.485.222-.561.483-.866 3.043-.057.483-.175 1.068-.26 1.3-.148.398-.173.39-.478-.177-.179-.328-.33-.506-.336-.396l-.094 1.708c-.084 1.548-.287 3.05-.43 3.199-.046.046-.082-.067-.082-.252 0-.375-.505-.455-.716-.113-.076.122-.163.599-.195 1.06-.108 1.612-.341 2.727-.619 2.957-.152.127-.291.175-.303.106a8.975 8.975 0 00-.076-.326 3.787 3.787 0 01-.077-.401c-.012-.11-.108-.201-.211-.201-.102 0-.167.461-.142 1.025.04.984-.286 1.844-.585 1.544-.237-.239-.894.231-.894.64 0 .21-.189.44-.42.514-.232.073-2.088.147-4.128.164-4.095.034-4.148.019-3.949-1.207.111-.688-.082-.854-.502-.433-.366.365-.522.026-.47-1.023.024-.462.04-.468.406-.137.48.434.703.137.52-.69-.163-.743-.098-.767 2.211-.842 1.533-.049 1.816-.11 1.872-.41.055-.282-.082-.355-.701-.373l-.768-.021.855-.192.856-.19-.047-1.512c-.046-1.604-.215-1.951-.657-1.349-.257.352-.277.345-.392-.13-.068-.277-.243-1.316-.391-2.311-.179-1.193-.322-1.686-.422-1.449-.139.328-.173.319-.386-.1-.422-.83-.746-2.179-.619-2.58.138-.434-.372-.57-.621-.166-.099.158-.191.136-.308-.073-.213-.38-.604-3.77-.462-4 .058-.095.052-.172-.012-.172s-.203.226-.307.502c-.105.276-.278.502-.384.502-.257 0-.506-1.593-.502-3.218.006-2.043-.035-2.006 2.186-2.006 1.891 0 2.2.115 1.616.6-.165.137-.25.33-.189.427.19.308 1.043.194 1.177-.158.239-.623.76.477.868 1.837.089 1.107.147 1.25.475 1.164.206-.054.329-.172.273-.262-.056-.09-.018-.216.082-.278.193-.12.617 1.941.641 3.116.008.378.093.868.187 1.09.159.368.175.36.191-.101.014-.441.37-1.271.428-1.005.177.79.615 3.112.713 3.768.069.47.199.854.288.854.177 0 .812-2.022.884-2.813a3.57 3.57 0 01.217-.905c.165-.382.181-.377.289.086.244 1.029.555.64.587-.73.018-.751.119-1.727.223-2.17a9.315 9.315 0 00.209-1.607c.02-.778.028-.786.223-.25.294.8.571.677.571-.252 0-.454.096-.804.223-.804.123 0 .179-.113.129-.251-.053-.138-.016-.432.082-.653.163-.369.171-.365.09.05-.092.49.016.55.475.26a.447.447 0 01.552.027c.197.164.257.108.257-.234 0-.276-.096-.41-.251-.35-.14.053-.365-.023-.5-.17-.203-.216-.074-.278.703-.339.525-.04 1.632-.058 2.46-.039l1.507.035.143.883zm-329.16-.625c.565 0 .256.349-.445.503-.331.073-.551.214-.49.315.065.105 2.332.155 5.32.117 2.863-.036 5.303-.005 5.422.069.138.085.196.857.159 2.127l-.058 1.993-3.25.1c-1.787.056-3.324.176-3.416.268-.091.092-.196 2.85-.233 6.129-.037 3.278-.095 5.99-.13 6.024-.145.146-4.514.286-5.012.16l-.542-.135.062-8.685c.034-4.776.142-8.808.24-8.959.127-.199.427-.24 1.082-.15.498.068 1.08.123 1.292.123zm8.501.203c0 .223-.264.305-1.035.323-1.757.04-1.96-.402-.27-.589 1.048-.116 1.305-.064 1.305.266zm22.105-.233c1.382.025 1.915.096 1.708.23-.355.23-7.499.266-9.545.05l-1.407-.15 1.809-.1c1.759-.098 3.293-.104 7.435-.03zm20.822.145c.125.077.117.217-.024.387-.31.374.042.547.949.467.692-.061.747-.023.876.595.075.363.125 1.516.111 2.562-.027 1.946.156 2.495.384 1.148.069-.414.18-.934.246-1.155.185-.626.424.624.634 3.316.224 2.87.355 3.416.819 3.416.37 0 .685-.51.5-.808-.058-.093-.013-.226.1-.295.112-.07.204-.026.204.098s.09.169.201.1c.281-.173.251.171-.04.463-.188.187-.146.24.189.24.479 0 .86-.433.49-.557-.17-.056-.152-.199.064-.508.166-.237.302-.792.302-1.234 0-.973.433-2.925.648-2.925.086 0 .155.09.155.201 0 .11.129.201.285.201.199 0 .281-.23.27-.754-.033-1.53.053-2.661.199-2.638.422.066.622-.084.969-.727.378-.704.442-.745 1.187-.784.504-.026.683-.723.187-.723-.193 0-.3-.05-.24-.111.205-.204 2.867-.294 3.159-.106.233.15.24.244.037.489-.206.249-.18.34.149.517.221.117.535.162.699.1.447-.172.526.383.355 2.493-.011.148-.134.23-.272.184-.151-.05-.226-.339-.186-.72.045-.442-.021-.636-.216-.636-.211 0-.293.364-.329 1.457a38.386 38.386 0 01-.186 2.659c-.128 1.11-.177 1.203-.641 1.206-.474.003-.51.082-.641 1.403-.139 1.412-.524 2.051-1.102 1.83-.162-.063-.242.093-.229.447.037.989-.294 3.468-.477 3.581-.1.061-.305.008-.457-.117-.368-.306-.513.163-.481 1.557.013.584-.041 1.127-.12 1.206-.158.158-6.289.185-7.23.032-.679-.11-.814-.446-1.123-2.792-.223-1.696-.481-2.154-.673-1.196-.071.356-.165.61-.209.565-.13-.136-.573-3.65-.547-4.341.03-.788-.317-1.06-.55-.43-.162.438-.177.441-.289.063-.235-.794-.467-2.312-.516-3.374-.014-.326-.111-.511-.229-.438-.113.07-.156.206-.095.303.06.097-.06.267-.266.377-.338.182-.397.078-.608-1.068-.129-.697-.234-1.687-.234-2.2 0-1.053-.513-1.348-.66-.378-.071.471-.092.442-.144-.201l-.08-1.005c-.013-.16.183-.228.532-.187.473.055.553-.008.553-.436 0-1.112.122-1.181 1.851-1.056.876.063 1.681.17 1.79.236zm134.864-.118c.193.002.352.099.352.217 0 .12-.171.16-.386.092-.466-.148-.782.27-.394.52.297.192 11.372.102 11.567-.093.064-.064.283-.028.486.08.623.334 7.445.228 7.793-.12.05-.05-.281-.09-.734-.09-.759 0-1.249-.27-.98-.54.215-.215 3.778-.114 4.005.114.221.22-.139.327-.812.24-.139-.019-.404.051-.591.155-.321.181.625.314 3.456.484l.804.049.026.904c.045 1.472.077 1.54.388.823.163-.377.245-.874.183-1.106-.086-.319-.068-.348.076-.119.527.835.686 3.529.577 9.695l-.112 6.28-.871.136c-1.123.176-3.88.2-5.015.045l-.884-.122.06-.833c.133-1.85.239-2.165.707-2.1.432.06.438.024.406-2.45-.016-1.382-.038-3.495-.046-4.696l-.016-2.184-.494.095c-.274.052-.529-.005-.571-.126-.073-.219-3.939-.208-4.16.012-.056.055-.12 2.737-.143 5.96-.024 3.224-.046 6.02-.05 6.213-.008.318-.279.352-2.831.352h-2.825l.036-6.152c.026-4.828-.022-6.187-.225-6.313-.141-.087-1.08-.145-2.084-.127l-1.825.033-.052 6.156c-.05 5.825-.074 6.162-.43 6.255-.207.054-1.72.087-3.364.073l-2.986-.025-.052-8.742c-.029-4.807-.004-8.866.054-9.018.076-.2.315-.242.856-.153.412.068.908.125 1.101.126zm11.689-.01c.278.019-.046.283-.442.36-.289.055-3.79.107-4.616.066-.138-.006-.251-.098-.251-.205 0-.238 3.167-.37 5.309-.221zm98.856.206c.1.1-.201.255-.701.36l-.879.185 1.407.148c1.849.193 1.849.193 2.007.908.103.475.244.617.607.617.42 0 .487.117.597 1.055.069.58.097 4.039.065 7.686l-.061 6.632h-5.425l-.053-6.28-.054-6.28-1.352-.016c-2.432-.028-3.965.041-4.114.186-.078.078-.169 2.865-.201 6.193l-.054 6.05-1.005.122c-1.3.157-4.011.155-4.973-.004l-.754-.124V57.065l4.773-.02c4.726-.02 6.669-.101 6.854-.286.052-.053-.213-.102-.591-.11-.377-.008-.868-.087-1.089-.178-.378-.154-.372-.17.101-.28a24.87 24.87 0 011.004-.21c.748-.136 3.688.07 3.891.273zm-30.617.008c0 .234-7.264.24-9.143.007-.78-.097.621-.16 3.969-.179 3.335-.019 5.174.042 5.174.172zm49.982-.08c-.066.067-.241.074-.385.016-.161-.064-.113-.112.122-.122.211-.008.33.04.263.106zm-266.292.46c-.133.216.449.472.708.312a.404.404 0 00.183-.302c0-.241-.743-.25-.891-.01zm262.247-.01c-.07.112-.028.265.091.339.309.19.508-.07.251-.328-.145-.145-.257-.148-.342-.011zm15.956.031c-.257.167-.251.196.05.198.193.002.352-.087.352-.198 0-.245-.022-.245-.402 0zm-301.526.284c2.321-.035 5.151-.008 6.289.059 2.358.138 2.401.17 2.476 1.833.054 1.171.182 1.28.595.503.272-.51.292-.455.416 1.156.072.93.14 4.284.151 7.452l.02 5.76-1.457.131c-1.335.12-13.755.03-14.392-.105-.389-.083-.82-1.216-.935-2.456-.093-1.006-.165-3.353-.109-3.564.014-.056.062-.824.106-1.708.045-.885.141-1.934.213-2.332l.133-.724 2.123-.13c1.167-.072 3.487-.132 5.156-.133 1.668-.002 3.13-.07 3.248-.15.119-.082.272-.3.34-.486.27-.733-.325-.842-5.083-.932l-4.595-.088-.06-.828c-.052-.713-.124-.827-.513-.813-.249.009-.452-.094-.452-.229 0-.134.158-.232.352-.217.528.042.582-.795.06-.931-.226-.06-.412-.207-.412-.328 0-.307.399-.277.414.031.007.139.095.048.195-.2.105-.262.354-.453.59-.453.225 0 .408-.101.408-.225 0-.152.082-.161.252-.028.152.12 1.905.173 4.471.135zm242.685.28c.075.077.159 1.61.187 3.405.026 1.796.109 3.266.181 3.266.075 0 .139-.41.147-.91.008-.5.084-1.383.171-1.96l.156-1.049.153.904c.085.498.143 3.586.131 6.864l-.022 5.959-1.023.11c-2.086.223-15.029.145-15.317-.094-.199-.166-.279-.813-.287-2.364l-.012-2.135-.352 1.105-.351 1.105-.113-1.406a23.688 23.688 0 01-.046-2.613c.034-.663.068-1.59.074-2.06.008-.768.057-.854.497-.854.536 0 .826-.546.625-1.178-.107-.336.032-.386 1.344-.483.804-.06 3.169-.12 5.255-.135 3.838-.027 4.624-.16 4.507-.765-.102-.529-1.049-.667-5.438-.794l-4.169-.12v-.589c0-.558-.039-.585-.754-.523l-.753.066v-2.813l3.416-.1c4.262-.126 11.609-.025 11.793.161zm-27.863 2.175c.175 2.787.032 12.26-.187 12.48-.085.084-.281-.02-.436-.234-.352-.48-.362-.467-.681.916l-.262 1.13-1.029.124c-.566.068-2.716.124-4.778.125l-3.75.002-.024 2.551c-.012 1.403-.07 2.597-.127 2.654-.213.214-6.346.27-6.557.06-.14-.142-.203-3.768-.189-11.127.011-6.005.023-10.94.025-10.968.002-.027 4.019-.05 8.926-.05h8.922l.147 2.337zM71.84 57.81c0 .373-.065.478-.208.335-.114-.114-.15-.359-.079-.543.187-.485.287-.412.287.208zm145.45-.205c.144.059.319.051.385-.015.067-.067-.052-.115-.263-.106-.235.01-.283.057-.122.121zm.038.856c0 .104.09.245.201.313.11.069.201-.017.201-.189s-.091-.313-.201-.313a.196.196 0 00-.201.19zm.169.766c-.119.571-.035 1.646.126 1.592.229-.076.281-1.743.056-1.743a.197.197 0 00-.182.15zm-165.37 3.667c0 1.16-.072 2.492-.162 2.958-.108.556-.095.806.037.725.133-.082.147.413.04 1.462-.089.873-.17 2.51-.179 3.637-.01 1.127-.081 1.986-.158 1.909-.194-.195-.243-8.186-.052-8.495.099-.16.071-.198-.078-.105-.17.104-.232-.353-.232-1.677 0-1.08.082-1.82.2-1.82.111 0 .202-.187.202-.415 0-.227-.09-.358-.201-.29-.11.07-.201.03-.201-.088 0-.117.09-.213.2-.213.111 0 .212-.293.225-.653.055-1.557.355 1.013.358 3.065zm358.314-3.44c0 .11.09.257.201.325.11.068.201.034.201-.077 0-.11-.091-.256-.201-.325-.111-.068-.201-.034-.201.077zm4.943.75c-.092.236-.04.29.195.2.177-.067.358-.123.404-.123.046 0 .085-.09.085-.2 0-.328-.549-.23-.684.122zm-245.129 1.012c-.539.094-.553.133-.585 1.54-.061 2.68.034 5.66.199 6.267l.164.603 1.842.032c2.069.035 2.712-.069 2.509-.407-.075-.126.012-.107.194.04.183.148.411.22.509.16.299-.185.489-7.785.202-8.071-.169-.17-4.248-.301-5.034-.164zm47.316.19c-.187.204-.201.387-.05.67.267.496.271 1.08.008.918-.125-.076-.195.246-.187.843.01.724.058.865.187.564.164-.383.173-.381.187.05.008.249-.099.454-.238.455-.166.002-.178.053-.038.151.237.164.288 1.052.059 1.052-.242 0-.105.786.152.885.177.068.247-.589.268-2.506.02-1.855-.041-2.599-.205-2.599-.169 0-.163-.086.02-.306.325-.392.181-.55-.163-.177zm30.552-.188c-.187.076-.251.958-.249 3.45.002 1.843.056 3.679.123 4.081l.12.731 2.006.08c1.103.045 2.313.045 2.691.001l.685-.08v-8.139l-1.055-.127c-1.224-.147-3.953-.145-4.321.003zm69.479.96c0 .492-.09.949-.201 1.017-.111.069-.201.345-.201.615s.09.49.201.49c.111 0 .201.232.201.515 0 .337-.08.465-.233.37-.159-.098-.175-.054-.052.14.096.155.186.734.197 1.286.012.553.036 1.438.054 1.967l.034.961 2.052-.057 2.051-.057.183-.704c.219-.847.412-6.301.245-6.965-.114-.457-.178-.47-2.325-.47h-2.206v.893zm-149.08 2.524c.035 2.883.075 3.216.383 3.216.255 0 .327-.142.281-.553-.033-.304.001-1.649.077-2.989.102-1.797.074-2.495-.105-2.662-.602-.563-.676-.218-.636 2.988zm153.957.034c.034 2.387.113 3.27.297 3.332.195.065.252-.672.252-3.248 0-2.804-.047-3.333-.298-3.333s-.289.498-.251 3.249zm-29.063-2.545c.016.276-.051.502-.151.502-.099 0-.179-.226-.179-.502 0-.655.293-.655.33 0zm-241.856.217c.01.234.057.282.121.122.058-.145.05-.319-.016-.386-.067-.066-.114.052-.105.264zm99.155.483c-.148.24.04.606.311.606.245 0 .246-.544.002-.695-.103-.064-.244-.024-.313.089zm-92.284 1.46c.049.138.26.225.47.194.208-.032 1.713-.069 3.343-.083 1.63-.014 2.964-.101 2.964-.194s-1.544-.168-3.432-.168c-2.66 0-3.413.056-3.345.25zm298.491.084c-.205.204-.161 8.707.044 8.707.099 0 .231-.133.293-.297.105-.27-.046-8.376-.156-8.494-.026-.028-.109.01-.181.084zm-298.395.92c-.378.378-.442 1.281-.222 3.115l.127 1.055h3.395c2.54 0 3.413-.063 3.471-.251.043-.138.137-.518.209-.844.09-.409.18-.511.293-.33.284.46 1.067-.106.895-.647-.077-.242-.128-.779-.112-1.193.03-.771-.183-.93-.76-.564-.208.131-.35.066-.503-.232-.2-.39-.394-.416-3.327-.438-2.717-.02-3.159.023-3.466.33zm282.277-.2c-.075.194-.071.6.01.904l.148.552.189-.545c.231-.66-.104-1.541-.347-.911zm-283.56.507c-.315.2-.248 2.298.077 2.406.174.058.251-.17.251-.737 0-.52-.092-.821-.25-.823-.187-.002-.182-.048.019-.175a.5.5 0 00.2-.494c-.04-.185-.167-.26-.297-.177zm220.168 3.763c0 1.75.046 3.136.102 3.08.151-.151.175-5.985.026-6.134-.07-.07-.128 1.304-.128 3.054zm-164.458-2.343c-.044.073-.081.477-.081.9.001.421-.05.817-.113.88-.062.062-.027.274.078.47.163.305.497.36 2.285.378 2.329.023 3.136-.174 3.136-.766 0-.694-.221-1.06-.5-.827-.459.38-.941.013-.803-.613l.123-.563-2.021.004c-1.113.002-2.059.064-2.104.137zm4.792.05c-.074.12-.034.318.089.441.164.165.223.107.223-.218 0-.485-.104-.56-.312-.224zm230.752-.103c-.082.084-.151.313-.151.51 0 .196-.241.475-.534.619-.736.361-1.065.92-.681 1.159.512.32 2.158.456 2.606.216.233-.124.579-.199.772-.167.235.04.371-.094.416-.406.042-.3-.031-.449-.201-.42-.473.078-.971-.253-.971-.644 0-.428.213-.49.545-.157.269.268.661.069.661-.336 0-.165-.193-.29-.452-.291a9.242 9.242 0 01-1.156-.119c-.386-.063-.772-.047-.854.036zm-241.894.587c0 .166-.09.302-.201.302-.11 0-.201-.136-.201-.302 0-.166.091-.301.201-.301.111 0 .201.135.201.301zm8.239.213c0 .172-.09.257-.201.19-.11-.07-.201-.21-.201-.314 0-.104.091-.19.201-.19.111 0 .201.142.201.314zm102.786.089c.068.11.165.2.213.2.048 0 .089-.09.089-.2 0-.11-.097-.201-.213-.201-.117 0-.157.09-.089.2zm157.244 3.605c0 .559.09 1.016.201 1.016.11 0 .201-.401.201-.892 0-.49-.091-.948-.201-1.017-.125-.076-.201.266-.201.893zm-266.862 1.53c0 .173.092.257.204.188.112-.07.152-.21.089-.314-.173-.278-.293-.226-.293.127zm6.004 1.477c.394.25-.996.458-2.55.383-1.193-.057-1.402-.138-1.11-.431.198-.198 3.337-.157 3.66.048zm108.638.019c-.221.095-1.714.165-3.316.155-1.963-.012-2.586-.062-1.909-.155 1.505-.207 5.705-.207 5.225 0zm32.855-.018c.426.122.354.165-.48.282-1.497.21-9.366.168-9.366-.05 0-.104.293-.225.653-.27 1.145-.142 8.671-.11 9.193.038zm93.388.14c-.066.066-.241.073-.386.015-.161-.064-.112-.112.123-.121.211-.009.329.039.263.105zm117.948 24.432c-.065.16-.111.112-.121-.122-.008-.212.038-.33.105-.264.068.067.074.24.016.386zm-.004 1.419c-.055.138-.101.025-.101-.251 0-.277.046-.39.101-.252a.774.774 0 010 .503zm0 1.205c-.055.139-.101.026-.101-.251 0-.276.046-.389.101-.251a.771.771 0 010 .502zm.006 1.508c-.051.193-.093.035-.093-.352s.042-.545.093-.352c.05.194.05.51 0 .704zm.012 7.636c-.036 1.298-.065.236-.065-2.361 0-2.598.029-3.66.065-2.362a109.36 109.36 0 010 4.723zm-116.099-2.174c0 .103.193.249.428.323.305.097.357.181.177.292-.197.122-.264 2.29-.298 9.674-.026 5.235-.09 9.744-.142 10.02l-.099.503-116.834-.003-116.837-.003.061-.632c.033-.347-.035-.69-.151-.762-.142-.088-.217-3.154-.227-9.413-.015-8.637-.058-10.125-.236-8.076-.086 1.003-.432.972-.509-.046-.032-.417-.104-.891-.162-1.054-.091-.261-.126-.261-.291 0-.142.225-.188.163-.19-.256l-.003-.551 117.389-.002c64.563-.001 117.433-.047 117.49-.102.164-.166.434-.112.434.088zm116.087 5.59c-.051.193-.093.035-.093-.352s.042-.545.093-.351c.05.193.05.51 0 .703zm.004 1.708c-.049.249-.089.045-.089-.452 0-.498.04-.701.089-.452.046.248.046.655 0 .904zm-.01 1.206c-.055.138-.101.025-.101-.252 0-.276.046-.389.101-.251a.774.774 0 010 .503zm.016 3.114c-.042.525-.077.096-.077-.954s.035-1.48.077-.955a15.2 15.2 0 010 1.909zm.39-2.323c-.065.16-.111.113-.121-.122-.008-.211.038-.33.105-.263.068.066.074.24.016.385zm.197 1.218c-.055.138-.101.025-.101-.251s.046-.389.101-.251a.771.771 0 010 .502zm-.109 1.812c-.197.197-.221.174-.113-.112.077-.199.189-.31.252-.248.06.062 0 .224-.139.36zm-.488 1.098c-.051.196-.095.084-.099-.247-.004-.332.036-.492.093-.356.054.136.058.408.006.603zm.4-.31c-.065.16-.111.113-.121-.122-.008-.211.038-.33.105-.263.068.067.074.24.016.385zm.07 1.157c-.293.547-.613.526-.595-.039.014-.43.022-.432.179-.051.147.363.179.344.319-.199.089-.331.195-.494.238-.363.044.131-.018.425-.141.652zm.03 1.26c-.143.144-.237.156-.237.03 0-.268.237-.506.372-.371.056.057-.004.21-.135.341zm-.261 28.09c.04-.829.088-3.38.106-5.668.018-2.289.097-4.224.175-4.302.077-.077.139 3.713.137 8.424-.004 5.54-.077 8.608-.209 8.689-.133.082-.193-.796-.175-2.555.014-1.473-.004-2.77-.04-2.88-.036-.111-.113 6.536-.171 14.77-.072 10.283-.105 5.595-.105-14.971 0-20.567.033-25.254.105-14.971.058 8.234.137 14.293.177 13.464zm-349.378-23.981c-.339.137-.319.602.032.736.156.06.721.073 1.256.03.535-.044 3.359-.131 6.276-.194 2.916-.063 5.434-.187 5.594-.277.527-.295-12.438-.586-13.158-.295zm225.416.088c-9.144.214-9.23.483-.201.621 4.143.064 7.553.1 7.578.08.024-.02-.011-.235-.075-.479-.086-.33-.249-.433-.645-.405-.289.022-3.287.104-6.657.183zm-210.433.117c.145.058.318.051.385-.016s-.052-.114-.264-.106c-.234.01-.281.058-.121.122zm7.121.001c.194.051.51.051.703 0 .194-.05.036-.092-.351-.092-.387 0-.545.042-.352.092zm194.834.401c.144.058.319.051.385-.016.067-.067-.052-.114-.263-.106-.235.01-.283.058-.122.122zm132.802 2.714c-.065.16-.111.112-.121-.122-.008-.212.038-.33.105-.264.068.067.074.241.016.386zm-.137 2.315c-.219.342-.225.341-.117-.008.065-.203.125-.474.133-.603.012-.17.042-.167.115.008.054.135-.004.406-.131.603zm.137 1.302c-.065.16-.111.112-.121-.122-.008-.212.038-.33.105-.264.068.067.074.241.016.386zm-334.655 3.375c.13-.002.373-.091.539-.198.243-.157.214-.195-.151-.198-.249-.001-.452-.093-.452-.204 0-.135 33.667-.201 101.194-.2 87.619.001 101.233.04 101.482.29.243.242.279 1.558.235 8.288-.048 7.521-.074 7.999-.41 7.999-.442.001-.739.442-.745 1.106-.002.276-.099.841-.213 1.256-.169.609-.304.753-.704.753-.385 0-.492.105-.492.483 0 .353-.159.538-.589.688-.773.27-1.412 1.196-1.002 1.456.178.113-.563.182-1.988.184-1.463.002-2.228.074-2.148.204.068.11.322.203.565.207.241.003.607.133.812.288.345.262.315.294-.402.446-.987.209-189.276.217-190.023.008-.481-.134-.528-.21-.343-.555.232-.435.12-.524-.802-.636-.388-.047-.534-.222-.673-.813-.105-.446-.297-.754-.47-.754-.162 0-.247.075-.19.168.057.092-.024.167-.181.167-.156 0-.236-.076-.179-.169.057-.093-.037-.223-.21-.289-.186-.072-.314-.361-.314-.709 0-.522-.044-.565-.393-.378-.536.287-.752-.157-.883-1.811a41.374 41.374 0 00-.123-1.4c-.012-.055-.214.126-.449.402-.249.292-.378.36-.306.164.067-.186.029-.37-.085-.408-.357-.119-.54-2.881-.565-8.528-.022-4.884.162-8.962.35-7.756.039.249.177.451.308.449zm334.719 1.952c0 .851-.072 1.462-.159 1.357-.157-.188-.086-2.904.074-2.904.047 0 .085.696.085 1.547zm-442.43 10.61c0 .664.038.911.083.549a5.358 5.358 0 00-.002-1.205c-.046-.302-.083-.007-.081.656zm309.943 2.179a.668.668 0 00.051.519c.116.186.188.165.283-.085.07-.184.129-.418.129-.519 0-.283-.346-.219-.463.085zm132.415 10.933c-.013 2.62-.079 4.143-.159 3.567-.187-1.349-.167-8.138.026-8.138.082 0 .143 2.057.133 4.571zm-328.855-3.789c-.171.108-.197.219-.068.299.251.155.843-.054.843-.299 0-.227-.418-.227-.775 0zm328.899 11.727c-.03 2.295-.125 2.119-.217-.402-.032-.912.01-1.658.092-1.658.085 0 .141.927.125 2.06zm-.04 2.813c-.055.139-.101.025-.101-.251s.046-.389.101-.251a.771.771 0 010 .502zm-305.304-.15c-.064.165-.151.301-.195.301-.043 0-.079-.136-.079-.301 0-.166.088-.302.195-.302.107 0 .143.136.079.302zm-11.776 8.389l.053 7.586-.957.024c-5.396.134-106.187.086-106.272-.051-.06-.099-.173-.142-.248-.096-.075.047-.112-3.343-.082-7.532l.055-7.618 53.7.051 53.699.05.052 7.586zm274.633-7.509c.155.251.163 14.913.008 15.068-.161.16-106.315.176-107 .015l-.503-.118v-7.002c0-5.423.057-7.02.252-7.085.138-.046.251-.25.251-.452 0-.203-.113-.414-.251-.47-.139-.056 23.911-.109 53.44-.117 30.685-.009 53.741.06 53.803.161zm-106.389.476c0 .083.592.151 1.318.151.747 0 1.268.08 1.204.184-.063.101.16.08.494-.046.466-.176.701-.172 1.005.017.261.164 1.189.236 2.759.216 1.652-.021 2.092-.07 1.459-.163l-.905-.134.905-.102c.799-.091-.553-.141-6.581-.245-.913-.016-1.658.039-1.658.122zm5.078.283c-.137.055-.408.058-.603.007-.195-.051-.085-.096.247-.1.332-.004.492.038.356.093zm143.768 1.727c-.049.248-.089.045-.089-.453 0-.497.04-.7.089-.452.046.249.046.656 0 .905zm-41.388 8.339c-.034 1.741-.06.316-.06-3.165s.026-4.906.06-3.165c.034 1.741.034 4.589 0 6.33zm-384.23-8.553c-.065.16-.112.113-.122-.121-.009-.212.039-.331.106-.264.066.067.073.24.015.385zm.008 2.424c-.045.359-.082.065-.082-.653 0-.719.037-1.012.081-.653a6.39 6.39 0 010 1.306zm425.612-.304c-.047.305-.087.103-.087-.45-.002-.552.036-.802.083-.555.048.247.05.699.004 1.005zm-.012 1.309c-.055.138-.101.025-.101-.251 0-.277.046-.39.101-.252a.774.774 0 010 .503zm-424.942 4.583c0 1.839-.077 3.18-.18 3.117-.098-.061-.157-.541-.13-1.067.027-.526.062-1.929.079-3.117.016-1.188.075-2.16.13-2.16.056 0 .101 1.452.101 3.227zm-.655.433c-.04.695-.072.178-.072-1.148 0-1.326.032-1.895.072-1.264.04.631.04 1.717 0 2.412zm425.01 1.012c-.04.691-.071.126-.071-1.256 0-1.381.031-1.946.071-1.256.04.691.04 1.822 0 2.512zm-.016 2.211c-.055.138-.101.025-.101-.251 0-.277.046-.39.101-.252a.774.774 0 010 .503zm.01 3.014c-.049.249-.089.045-.089-.452 0-.498.04-.701.089-.452.046.248.046.655 0 .904zm-.004 1.503c-.051.196-.095.084-.099-.247-.004-.332.036-.492.093-.356.054.136.058.408.006.603zm.665 1.751c0 .048-.091.144-.201.212-.111.069-.201.029-.201-.088 0-.117.09-.213.201-.213.11 0 .201.04.201.089zm-.665 1.066c-.051.194-.093.036-.093-.351 0-.387.042-.545.093-.352.05.194.05.51 0 .703zm.556.64c.063.102.024.243-.088.313-.113.069-.205-.015-.205-.187 0-.353.121-.405.293-.126zm-317.923.141l.932.128v16.596l-1.055.124c-1.296.151-90.882.02-91.583-.134-.276-.061-.58-.123-.676-.137-.095-.014-.134-.293-.086-.619.085-.577.064-.593-.662-.53-.701.058-.755.022-.843-.563-.052-.344-.016-.655.08-.691.096-.036.077-.247-.042-.471-.119-.223-.186-.93-.149-1.573.076-1.328-.114-1.433-.316-.173-.18 1.13-.532.77-.754-.773-.181-1.26-.208-10.12-.032-10.859l.108-.453h47.073c25.89 0 47.492.058 48.005.128zm264.197.124c.255.215.278.987.161 5.413-.076 2.839-.207 5.914-.293 6.832-.149 1.61-.161 1.64-.342.866a13.422 13.422 0 01-.237-1.306c-.135-1.356-.203-1.107-.304 1.105l-.11 2.412-.653.193c-.494.144-.627.277-.543.546.085.259-.022.382-.4.46-.283.059-.727.151-.986.203-.259.055-4.487.115-9.395.137-8.767.036-16.263.235-13.343.352.774.032 2.04.094 2.814.138.773.047 4.903.105 9.177.133 4.272.026 7.827.104 7.895.175.071.07-.713.181-1.742.247-2.554.165-85.524.032-85.695-.137-.075-.074 1.891-.14 4.368-.146 2.478-.004 5.185-.051 6.013-.101 1.433-.084 4.859-.205 9.043-.313l1.909-.051-1.507-.114c-.828-.062-6.075-.143-11.656-.177-5.58-.034-10.214-.129-10.296-.211-.083-.08-.153-3.691-.157-8.024-.004-4.332-.042-7.879-.086-7.879-.043 0-.213-.052-.378-.115-.185-.071-.338.025-.396.251-.085.327-.097.323-.117-.035-.016-.282.203-.502.73-.735.693-.306 4.545-.334 48.491-.351 37.919-.016 47.798.032 48.035.232zm53.168.389c-.065.16-.111.113-.121-.121-.008-.212.038-.331.105-.264.068.067.074.24.016.385zm.667 1.28c0 .173-.091.258-.201.189-.111-.068-.201-.209-.201-.313 0-.104.09-.189.201-.189.11 0 .201.141.201.313zm-.083 1.243c-.217.216-.331-.086-.178-.472.142-.362.152-.363.223-.013.04.202.02.42-.045.485zm-.008 10.217c.006 5.295-.02 8.181-.056 6.413-.036-1.769-.134-3.105-.219-2.968-.084.134-.173-.535-.195-1.489-.02-.955.05-1.843.161-1.976.241-.291.231-.996-.042-2.662-.161-.979-.149-1.327.054-1.572.175-.211.191-.361.052-.45-.225-.149-.253-1.642-.03-1.642.074-.002.058-.277-.04-.615-.097-.339-.129-.737-.072-.884.058-.148.002-.333-.121-.41-.165-.1-.161-.213.01-.42.129-.154.185-.468.127-.697-.071-.263-.024-.386.126-.336.175.059.237 2.534.245 9.708zm-150.885-7.809c-.05.197-.095.085-.099-.247-.004-.331.037-.49.093-.355.054.136.058.408.006.602zm-114.279 3.244c0 .106.362.253.804.327.959.163.874.503-.124.503-2.202 0-4.289.713-3.505 1.197.275.171-.373.404-1.137.408-.334.002-.49.167-.615.649-.115.448-.317.682-.654.762-.343.08-.548.325-.692.828-.113.394-.296.685-.406.649-.451-.147-.744.342-1.028 1.718-.165.796-.38 1.646-.478 1.889-.167.416-.178.41-.19-.113-.007-.303-.092-.552-.189-.552-.098 0-.242 1.123-.321 2.498-.079 1.372-.114 52.984-.078 114.692.036 61.708.041 121.384.01 132.615l-.057 20.419 1.065.144 1.065.145-.754.39c-.414.215-.754.424-.754.464 0 .04.555.083 1.232.091.677.01 1.536.074 1.907.144.592.111.661.187.556.607-.112.444-.062.482.654.488.427.004 1.318.139 1.981.298.664.161 1.568.299 2.01.311l.804.018-.866.308c-1.065.376-.943.544.424.583.574.016 1.752.1 2.618.187l1.573.156-.719.412c-.396.225-.719.472-.719.547 0 .076.383.14.854.144.47.004 1.262.083 1.762.175.788.147.908.235.904.665-.004.451.079.497.901.515 1.01.024 4.883.49 4.993.601.04.04-.482.134-1.159.211-.678.076-1.27.205-1.321.283-.048.08 1.061.211 2.466.291 1.407.081 2.781.173 3.059.205.277.033.683.073.904.091.317.024.265.096-.251.351-.887.439-.82.637.201.603.799-.028.856-.068.89-.633.038-.635.122-274.799.086-277.442-.022-1.521-.028-1.539-.625-1.748-.432-.151-.603-.34-.607-.673-.004-.643-.235-.941-.699-.9-.392.036-.48-.183-.826-2.024-.05-.257-.235-.454-.434-.458-.591-.01-1.043-.484-.916-.963.11-.43.084-.448-.788-.518-.366-.028-.848-.539-.85-.9-.004-.318-.466-.442-2.616-.704-2.273-.275-2.581-.45-1.13-.643 2.076-.275.921-.424-3.593-.462-2.821-.024-4.622.034-4.622.151zm54.056.022c0 .112.203.207.452.209.249.002.585.086.748.189.422.267.08.361-2.004.554-1.7.157-1.708.161-1.897.8-.152.521-.307.655-.803.703-.533.053-.623.149-.678.714-.05.524-.152.653-.512.653-.675 0-.933.384-.937 1.397-.002 1.145-.213 1.503-.775 1.324-.418-.133-.537.088-.444.832a.413.413 0 01-.177.363c-.115.071-.221.416-.237.768-.03.625-.032.627-.115.076-.06-.395-.185-.544-.422-.5-.279.054-.359.426-.472 2.172-.074 1.16-.127 63.939-.117 139.508.017 117.202.061 137.4.3 137.4.155 0 .472-.103.709-.229.32-.171.448-.171.505-.002.054.163.188.169.466.02.215-.115.478-.155.587-.087.108.067.196.025.196-.092 0-.135.674-.213 1.821-.213 1.162 0 1.777-.072 1.696-.201-.068-.11-.458-.207-.866-.215-.408-.008-.922-.084-1.143-.171-.511-.201 3.277-.721 5.074-.697.691.008 1.256-.05 1.256-.133 0-.08-.34-.283-.754-.45-.719-.291-.729-.309-.251-.412.637-.136 1.939-.315 3.657-.502 1.338-.145 2.032-.41 1.2-.458a4.535 4.535 0 01-.637-.077 7.265 7.265 0 00-.553-.098c-.856-.121 1.837-.567 3.517-.585 1.023-.01 1.859-.094 1.859-.185 0-.092-.43-.309-.955-.484l-.954-.318.725-.018c.4-.01 1.17-.102 1.708-.205.541-.1 1.389-.245 1.883-.317 1.059-.157 1.21-.231 1.21-.601 0-.153-.25-.313-.553-.36-.356-.054-.225-.094.368-.114.506-.016 1.437-.133 2.068-.259.988-.199 1.139-.29 1.089-.65-.046-.327.074-.442.544-.526.527-.092.601-.187.591-.758-.006-.357-.028-61.028-.05-134.823l-.038-134.171-.41.438c-.515.553-.593.551-.583-.012.004-.247-.1-1.288-.231-2.313-.197-1.549-.283-1.82-.517-1.627-.345.285-.53.114-.623-.573-.116-.864-.432-1.296-.847-1.163-.205.064-.441.006-.525-.131-.086-.137-.048-.281.082-.326.543-.181.163-.448-.968-.681-1.25-.257-1.453-.42-.854-.679.384-.167-.05-.287-2.617-.734-1.346-.233-1.712-.596-.733-.731.267-.038.565-.143.661-.235.097-.093-2.052-.177-4.773-.189-3.261-.014-4.947.048-4.947.185zm60.223 2.566c-.05.195-.093.036-.093-.352 0-.385.043-.544.093-.351.05.195.05.51 0 .703zm-315.493 2.5c-.065.161-.112.112-.122-.121-.008-.213.039-.331.106-.265.066.068.074.241.016.386zm466.083.683c.01.233.056.281.121.121.058-.145.052-.318-.016-.386-.067-.067-.113.052-.105.265zm-150.586 1.738c-.048.249-.091.093-.093-.349-.002-.442.039-.647.089-.455.05.193.052.555.004.804zm150.602-.45c0 .277.046.39.101.251a.771.771 0 000-.502c-.055-.137-.101-.024-.101.251zm-106.284 1.553a8.428 8.428 0 001.507 0c.414-.042.074-.078-.754-.078s-1.167.036-.753.078zm2.817-.006c.195.051.466.047.603-.008.136-.056-.024-.096-.356-.092-.332.004-.442.048-.247.1zm3.814.01c1.63.035 4.298.035 5.928 0 1.63-.034.297-.062-2.964-.062-3.262 0-4.594.028-2.964.062zm10.952-.018a.758.758 0 00.502 0c.139-.054.026-.1-.251-.1s-.39.046-.251.1zm5.035.006c.145.057.32.051.386-.016.067-.068-.052-.114-.263-.106-.235.01-.283.058-.123.122zm83.584 29.136c-.03 5.396-.055 1.039-.055-9.682 0-10.72.025-15.135.055-9.81.03 5.323.03 14.095 0 19.492zm-323.781-28.533c-3.117.127-79.839.153-79.52.026.19-.074 18.476-.124 40.636-.11 22.159.014 39.657.052 38.884.084zm-81.34.185c-.066.066-.24.073-.384.016-.16-.064-.113-.112.121-.122.212-.008.33.038.264.106zm13.652 9.172c-.056.138-.101.026-.101-.252 0-.275.045-.387.1-.251a.777.777 0 010 .503zm366.834 19.441c0 .278.046.39.101.252a.774.774 0 000-.503c-.055-.136-.101-.024-.101.251zm-335.217 3.817c-1.169.18-.183.407 1.674.383 1.692-.02 2.793-.209 2.443-.416-.239-.144-3.128-.12-4.117.033zm249.835.018c-1.002.353 2.321.721 3.541.391.476-.128.824-.275.774-.325-.143-.143-3.937-.199-4.315-.066zm85.426 2.294c0 1.327.035 1.843.073 1.148.04-.695.04-1.781 0-2.412s-.073-.062-.073 1.264zm-335.562-1.499c-.553.081-1.394.25-1.869.38-.716.195-.844.304-.743.621.094.296.002.416-.392.515-.283.07-.723.367-.978.659-.255.291-.64.629-.854.747-.214.119-.519.503-.677.854-.158.35-.364.637-.459.637-.094 0-.071-.189.053-.418.247-.462.193-.641-.128-.424-.114.077-.359.953-.545 1.947-.312 1.674-.34 7.87-.382 82.491-.034 62.787.01 80.78.199 81.119.134.241.536.647.895.902a8.81 8.81 0 011.256 1.162c.699.804 1.097 1.2 3.966 3.929 3.01 2.863 3.617 3.45 4.102 3.964.93.989 2.666 2.566 2.822 2.566.09 0 .417.318.725.704.309.388.687.703.841.703.153 0 .472.271.708.603.236.331.589.603.784.603.195 0 .574.339.842.753.269.416.651.754.853.754.353 0 .367-3.077.4-88.72.019-48.794-.042-89.78-.136-91.08-.094-1.299-.246-2.362-.34-2.362-.093 0-.255.384-.36.854-.18.804-.193.816-.213.207-.055-1.665-1.295-3.464-2.16-3.132-.165.064-.519 0-.786-.145-.373-.199-.435-.322-.266-.527.273-.327.17-.365-1.833-.647-2.141-.301-4.159-.383-5.325-.219zm248.33.282c-.577.138-1.21.438-1.407.665-.197.225-.789.569-1.318.761-1.097.404-1.389.692-.709.704.456.008.456.012-.063.295-.289.157-.677.605-.864.997-.185.39-.466.709-.625.709-.158 0-.357.249-.442.553-.084.305-.154 41.177-.154 90.829 0 49.653-.061 90.277-.135 90.277-.074 0-.195-.564-.267-1.256-.073-.689-.089-39.912-.039-87.162.053-47.247.037-86.849-.034-88-.086-1.399-.211-2.122-.38-2.176-.2-.067-.251 17.975-.251 89.758 0 78.767.036 89.841.296 89.841.16 0 .39-.181.508-.402.119-.221.316-.402.44-.402.284 0 1.957-1.25 1.965-1.469.004-.088-.106-.096-.245-.014-.138.081-.078-.05.133-.291.44-.503.762-.575.593-.135-.217.569.062.302.789-.753.758-1.1 2.555-2.976 2.555-2.669 0 .096-.151.342-.334.543-.183.203-.285.367-.231.367.133 0 .796-.611 1.145-1.059.249-.317.237-.343-.1-.243-.209.06-.087-.044.273-.233.36-.191.653-.464.653-.611 0-.144.133-.265.296-.265.279 0 .745-.637.83-1.133.06-.356.85-1.077 1.179-1.077.161 0 .595-.294.965-.654a54.092 54.092 0 011.412-1.31c.41-.362.744-.739.744-.84 0-.1.177-.239.392-.307a.904.904 0 00.518-.529c.071-.221.348-.486.617-.586.267-.103.591-.414.717-.694.127-.277.33-.508.451-.512.253-.008 1.123-.697 1.123-.892 0-.071-.113-.067-.251.012-.139.078-.03-.073.239-.334.271-.261.621-.494.78-.518.562-.083.687-.461.854-2.615.092-1.197.168-37.716.17-81.152.004-81.704-.01-83.143-.789-81.881-.155.249-.231.231-.493-.106-.168-.221-.275-.545-.235-.722.077-.341-.474-.785-.976-.785-.167 0-.304-.175-.304-.394 0-.217-.197-.579-.44-.804-.297-.275-.348-.41-.157-.41.71 0-.402-.569-1.714-.876-1.696-.398-6.109-.422-7.68-.04zm8.986.795c0 .043-.14.133-.311.197-.179.071-.259.037-.189-.078.117-.191.5-.281.5-.119zm-247.885 1.307c.061.098-.024.231-.189.295-.182.068-.3-.002-.3-.181 0-.325.314-.398.489-.114zm350.595 4.159c-.149.631-.189.68-.205.248-.02-.557.171-1.248.31-1.11.042.042-.004.432-.105.862zm-367.862.758c-.266.613.009 160.877.276 161.146.257.255.288-159.858.032-160.919-.126-.518-.168-.551-.308-.227zm269.493 2.992c-.141 3.714-.261 118.557-.145 139.206.04 7.462.133 14.378.203 15.373.137 1.911.454-105.099.412-138.204-.024-18.254-.187-23.909-.47-16.375zm98.281-2.023c-.065.16-.111.112-.121-.121-.008-.213.038-.332.105-.265.068.068.074.241.016.386zm-347.816 2.976c-.115 2.586-.081 67.639.046 87.513l.061 9.445.138-5.627c.183-7.437.198-91.745.017-93.04-.114-.813-.164-.488-.262 1.709zm348.415 2.059c-.055.139-.101.026-.101-.251 0-.275.046-.388.101-.251a.771.771 0 010 .502zm-161.352 12.158c-.046.305-.084.056-.084-.553 0-.607.038-.856.084-.552.047.305.047.801 0 1.105zm.003 7.33c-.043.473-.077.135-.079-.749 0-.884.034-1.27.079-.858.042.41.042 1.133 0 1.607zm-278.723 2.014c-.048.249-.088.046-.088-.452 0-.497.04-.699.088-.452.048.249.048.657 0 .904zm278.741 35.468c-.031 30.858-.065 34.955-.225 26.413-.171-9.069-.013-62.936.184-62.936.043 0 .061 16.436.041 36.523zm159.729-35.372c-.05.197-.094.085-.099-.247-.004-.331.037-.49.093-.355.054.136.058.408.006.602zm-15.395.575c.01.233.056.281.121.121.058-.145.052-.318-.016-.386-.067-.066-.113.052-.105.265zm-1.222 8.522c0 .111.097.201.213.201.117 0 .157-.09.089-.201-.069-.11-.165-.2-.213-.2-.048 0-.089.09-.089.2zm-421.125 2.11c0 .167.076.302.168.302.092 0 .168-.135.168-.302 0-.164-.076-.301-.168-.301-.092 0-.168.137-.168.301zm-9.774 1.859c-.051.195-.092.036-.092-.351 0-.386.041-.545.091-.352.051.195.051.51 0 .703zm2.812 10.739c-.064.161-.112.113-.122-.121-.009-.213.039-.331.106-.265.066.069.074.241.016.386zm140.879 32.351c-.03 5.341-.054 1.029-.054-9.581 0-10.611.024-14.979.054-9.71.03 5.269.03 13.95 0 19.291zm298.192-27.114c-.054.138-.1.026-.1-.251 0-.276.046-.388.1-.252a.761.761 0 010 .503zm-425.809 2.198c-.064.161-.111.113-.121-.12-.009-.213.039-.332.105-.266.067.069.074.242.016.386zm398.217 4.489c-.159.416-.271.368-.271-.118 0-.227.086-.36.192-.294.105.065.141.252.079.412zm-240.189 13.559c-.007 2.21.054 3.215.184 3.014.239-.37.239-5.372 0-5.928-.106-.247-.177.878-.184 2.914zm261.118.401c.068.111.028.201-.089.201-.116 0-.213-.09-.213-.201 0-.11.041-.201.089-.201.048 0 .145.091.213.201zm-260.87 14.469c0 .719.037 1.013.081.653a6.334 6.334 0 000-1.306c-.044-.358-.081-.065-.081.653zm-.265 6.619c0 2.458.078 4.232.186 4.232.249 0 .253-8.191.004-8.345-.117-.073-.19 1.507-.19 4.113zm223.457.916c0 .167-.089.302-.195.302-.107 0-.143-.135-.079-.302.063-.164.151-.301.195-.301.042 0 .079.137.079.301zm-109.778 1.558c-.048.249-.088.046-.088-.452 0-.497.04-.702.088-.452.047.249.047.655 0 .904zm-187.047 2.009c-.042 3.732.052 12.307.136 12.391.047.046.086-3.139.086-7.082 0-3.942-.045-7.167-.1-7.167-.056 0-.11.836-.122 1.858zm154.301 19.894c-.031 4.007-.057.73-.057-7.284 0-8.012.026-11.289.057-7.284.03 4.006.03 10.563 0 14.568zm32.753-16.586c-.039.752-.071.189-.071-1.248s.032-2.05.071-1.364c.038.687.038 1.862 0 2.612zm21.503 15.065c-.032 3.185-.056.637-.056-5.663 0-6.299.024-8.906.056-5.791.03 3.115.03 8.269 0 11.454zm-21.505-11.44c-.045.416-.079.076-.079-.753 0-.828.034-1.168.079-.754a9.028 9.028 0 010 1.507zm-144.085 5.828c-.046.303-.083.056-.083-.553 0-.607.037-.856.083-.553a4.45 4.45 0 010 1.106zm-42.869 2.26c0 1.383.033 1.948.072 1.256.039-.689.039-1.82 0-2.512-.039-.689-.072-.124-.072 1.256zm186.958 34.011c-.031 6.549-.055 1.192-.055-11.906 0-13.096.024-18.453.055-11.906.03 6.549.03 17.265 0 23.812zm126.648-33.128c0 .042-.18.122-.401.18-.221.059-.352.025-.29-.076.109-.175.691-.263.691-.104zm-313.667 2.049c.01.233.057.282.121.121.058-.145.051-.318-.016-.386-.066-.066-.114.052-.105.265zm.067 4.001c0 1.99.03 2.777.067 1.748a59.742 59.742 0 000-3.617c-.037-.96-.067-.12-.067 1.869zm42.87 11.117c-.033 2.063-.06.317-.059-3.883 0-4.2.026-5.889.059-3.753.033 2.134.033 5.57 0 7.636zm-42.898-6.395c0 .499.039.702.087.453.048-.25.048-.655 0-.905-.048-.249-.087-.044-.087.452zm-.008 6.431c0 .388.041.546.092.352a1.67 1.67 0 000-.704c-.051-.193-.092-.034-.092.352zm42.901 7.284c-.045.36-.081.067-.081-.653 0-.717.036-1.011.081-.653.044.36.044.949 0 1.306zm-42.932-.132c.01.233.057.281.121.12.058-.144.051-.317-.016-.386-.066-.066-.114.053-.105.266zm42.936 9.878c-.036 1.08-.065.197-.065-1.959 0-2.154.029-3.036.065-1.959a71.082 71.082 0 010 3.918zm227.175-2.015c-.138.05-.251.237-.251.418 0 .297.03.297.34-.012.364-.364.321-.553-.089-.406zm-2.863 2.97c-.139.169-.161.301-.05.301.11 0 .313-.134.452-.301.138-.167.161-.301.05-.301-.11 0-.313.136-.452.301zm-224.322 1.855c-.051.197-.096.084-.1-.247-.004-.332.037-.491.092-.356.055.137.059.408.008.603zm.038 27.333c-.013 14.563-.089 26.069-.169 25.571-.08-.496-.126-1.176-.103-1.507.024-.332.054-11.838.069-25.571.014-13.733.071-24.968.126-24.968.055 0 .09 11.914.077 26.475zm221.672-26.073c0 .11.096.201.213.201.116 0 .156-.091.088-.201-.068-.111-.165-.201-.213-.201-.048 0-.088.09-.088.201zM118.829 432.68c-.087 2.779-.061 3.245.184 3.328.314.104.364-4.075.05-4.27-.123-.077-.214.291-.234.942zm43.174 33.961c-.064.16-.112.112-.122-.121-.008-.213.039-.331.106-.265.067.068.074.241.016.386zm48.036 24.198c-.066.067-.241.072-.386.016-.16-.064-.112-.112.123-.122.211-.008.33.038.263.106zm38.657 3.151c-.555.283-.504.671.076.589.543-.076.838-.394.595-.639-.124-.123-.365-.105-.671.05zm-55.537 1.873c-.066.066-.24.072-.385.016-.16-.064-.113-.113.122-.123.211-.008.33.039.263.107zm68.629 5.637a.771.771 0 01-.502 0c-.139-.055-.027-.101.251-.101.277 0 .39.046.251.101zm-22.858 3.968c.92.26.496.284-5.024.278-3.316-.002-6.3-.075-6.631-.159l-.603-.153.703-.044c.386-.024.929-.123 1.206-.221.786-.275 9.165-.032 10.349.299z"/></svg></svg>