<svg width="21" height="20" viewBox="0 0 21 20" fill="none" xmlns="http://www.w3.org/2000/svg">
<g clip-path="url(#clip0_4_426)">
<path d="M10.49 5.95696e-05C5.03 5.95696e-05 0.58 4.45006 0.58 9.91006C0.58 11.6601 1.04 13.3601 1.9 14.8601L0.5 20.0001L5.75 18.6201C7.2 19.4101 8.83 19.8301 10.49 19.8301C15.95 19.8301 20.4 15.3801 20.4 9.92006C20.4 7.27006 19.37 4.78006 17.5 2.91006C16.5832 1.98399 15.4912 1.24973 14.2876 0.750111C13.0841 0.250494 11.7931 -0.00448012 10.49 5.95696e-05ZM10.5 1.67006C12.7 1.67006 14.76 2.53006 16.32 4.09006C17.0856 4.85541 17.6926 5.76438 18.1062 6.76482C18.5197 7.76526 18.7317 8.83751 18.73 9.92006C18.73 14.4601 15.03 18.1501 10.49 18.1501C9.01 18.1501 7.56 17.7601 6.3 17.0001L6 16.8301L2.88 17.6501L3.71 14.6101L3.51 14.2901C2.68394 12.9787 2.24701 11.4599 2.25 9.91006C2.26 5.37006 5.95 1.67006 10.5 1.67006ZM6.98 5.33006C6.82 5.33006 6.55 5.39006 6.32 5.64006C6.1 5.89006 5.45 6.50006 5.45 7.71006C5.45 8.93006 6.34 10.1001 6.45 10.2701C6.59 10.4401 8.21 12.9401 10.7 14.0001C11.29 14.2701 11.75 14.4201 12.11 14.5301C12.7 14.7201 13.24 14.6901 13.67 14.6301C14.15 14.5601 15.13 14.0301 15.34 13.4501C15.55 12.8701 15.55 12.3801 15.49 12.2701C15.42 12.1701 15.26 12.1101 15.01 12.0001C14.76 11.8601 13.54 11.2601 13.32 11.1801C13.09 11.1001 12.95 11.0601 12.76 11.3001C12.6 11.5501 12.12 12.1101 11.98 12.2701C11.83 12.4401 11.69 12.4601 11.45 12.3401C11.19 12.2101 10.39 11.9501 9.45 11.1101C8.71 10.4501 8.22 9.64006 8.07 9.39006C7.95 9.15006 8.06 9.00006 8.18 8.89006C8.29 8.78006 8.45 8.60006 8.55 8.45006C8.68 8.31006 8.72 8.20006 8.8 8.04006C8.88 7.87006 8.84 7.73006 8.78 7.61006C8.72 7.50006 8.22 6.26006 8.01 5.77006C7.81 5.29006 7.61 5.35006 7.45 5.34006C7.31 5.34006 7.15 5.33006 6.98 5.33006Z" fill="white"/>
</g>
<defs>
<clipPath id="clip0_4_426">
<rect width="20" height="20.0001" fill="white" transform="translate(0.5)"/>
</clipPath>
</defs>
</svg>
